<?xml version="1.0" encoding="utf-8"?>
<!-- Generator: Adobe Illustrator 17.1.0, SVG Export Plug-In . SVG Version: 6.00 Build 0)  -->
<!DOCTYPE svg PUBLIC "-//W3C//DTD SVG 1.1//EN" "http://www.w3.org/Graphics/SVG/1.1/DTD/svg11.dtd">
<svg version="1.1" id="Capa_1" xmlns="http://www.w3.org/2000/svg" xmlns:xlink="http://www.w3.org/1999/xlink" x="0px" y="0px"
	 viewBox="0 0 612 792" enable-background="new 0 0 612 792" xml:space="preserve">
<circle fill="#FFFFFF" cx="324.8" cy="351.1" r="51.3"/>
<path fill="#FFFFFF" d="M273.4,351.1c0-28.6,22.7-51.3,51.3-51.3s51.3,22.7,51.3,51.3s-22.7,51.3-51.3,51.3"/>
<path fill="#595A5B" d="M27.6,302.7H0v96.7h27.6c14.8,0,25.7-3.9,34.5-10.9C73,379.7,80,365.9,80,351.1
	C80,322.5,59.2,302.7,27.6,302.7z M50.3,375.8c-5.9,4.9-13.8,7.9-25.7,7.9h-5.9v-64.2h4.9c11.8,0,19.7,2,25.7,7.9
	c6.9,5.9,10.9,14.8,10.9,23.7C61.2,360,57.3,369.8,50.3,375.8z"/>
<rect id="SVGCleanerId_0" x="88.8" y="302.7" fill="#595A5B" width="18.8" height="96.7"/>
<path fill="#FFFFFF" d="M155,340.2c-11.8-3.9-14.8-6.9-14.8-11.8c0-5.9,5.9-10.9,13.8-10.9c5.9,0,10.9,2,15.8,7.9l9.9-12.8
	c-7.9-6.9-17.8-10.9-28.6-10.9c-16.8,0-30.6,11.8-30.6,27.6c0,13.8,5.9,19.7,23.7,26.7c7.9,3,10.9,3.9,12.8,5.9
	c3.9,2,5.9,5.9,5.9,9.9c0,7.9-5.9,13.8-14.8,13.8s-16.8-4.9-20.7-12.8l-11.8,11.8c8.9,12.8,19.7,18.8,33.6,18.8
	c19.7,0,33.6-12.8,33.6-31.6C182.6,355,176.7,348.1,155,340.2z"/>
<path fill="#FFFFFF" d="M188.5,351.1c0,28.6,22.7,50.3,51.3,50.3c7.9,0,14.8-2,23.7-5.9v-22.7c-7.9,7.9-14.8,10.9-22.7,10.9
	c-18.8,0-32.6-13.8-32.6-33.6c0-18.8,13.8-33.6,31.6-33.6c8.9,0,15.8,3,23.7,10.9v-22.7c-7.9-3.9-14.8-5.9-23.7-5.9
	C212.2,300.7,188.5,323.4,188.5,351.1z"/>
<polygon fill="#FFFFFF" points="418.5,367.9 392.9,302.7 372.1,302.7 412.6,402.4 423.5,402.4 465.9,302.7 445.2,302.7 "/>
<polygon fill="#FFFFFF" points="473.8,399.5 528.1,399.5 528.1,383.7 493.5,383.7 493.5,357 527.1,357 527.1,340.2 493.5,340.2 
	493.5,319.5 528.1,319.5 528.1,302.7 473.8,302.7 "/>
<g>
	<path fill="#FFFFFF" d="M581.4,359c14.8-3,22.7-12.8,22.7-27.6c0-17.8-12.8-28.6-34.5-28.6h-28.6v96.7h18.8V361h3l26.7,38.5H612
		L581.4,359z M565.6,347.1h-5.9v-29.6h5.9c11.8,0,18.8,4.9,18.8,14.8S577.5,347.1,565.6,347.1z"/>
	<path fill="#FFFFFF" d="M27.6,302.7H0v96.7h27.6c14.8,0,25.7-3.9,34.5-10.9C73,379.7,80,365.9,80,351.1
		C80,322.5,59.2,302.7,27.6,302.7z M50.3,375.8c-5.9,4.9-13.8,7.9-25.7,7.9h-5.9v-64.2h4.9c11.8,0,19.7,2,25.7,7.9
		c6.9,5.9,10.9,14.8,10.9,23.7C61.2,360,57.3,369.8,50.3,375.8z"/>
</g>
<g>
	<rect id="SVGCleanerId_0_1_" x="88.8" y="302.7" fill="#FFFFFF" width="18.8" height="96.7"/>
</g>
<path fill="#FFFFFF" d="M581.4,359c14.8-3,22.7-12.8,22.7-27.6c0-17.8-12.8-28.6-34.5-28.6h-28.6v96.7h18.8V361h3l26.7,38.5H612
	L581.4,359z M565.6,347.1h-5.9v-29.6h5.9c11.8,0,18.8,4.9,18.8,14.8S577.5,347.1,565.6,347.1z"/>
<g>
	<path fill="#FFFFFF" d="M139.2,489.3V435l37.5,38.5V438h7.9v54.3l-37.5-38.5v35.5L139.2,489.3L139.2,489.3z"/>
	<path fill="#FFFFFF" d="M224.1,445.8h-20.7v11.8h19.7v7.9h-19.7v16.8h20.7v6.9h-28.6V438h28.6V445.8z"/>
	<path fill="#FFFFFF" d="M248.7,445.8v43.4h-7.9v-43.4H229v-6.9h31.6v6.9H248.7z"/>
	<path fill="#FFFFFF" d="M272.4,438.9l12.8,34.5l13.8-36.5l12.8,36.5l13.8-34.5h9.9l-22.7,54.3l-12.8-36.5l-13.8,36.5l-21.7-54.3
		H272.4z"/>
	<path fill="#FFFFFF" d="M336.6,463.6c0-6.9,3-13.8,7.9-18.8s11.8-7.9,18.8-7.9c6.9,0,13.8,3,18.8,7.9s7.9,11.8,7.9,18.8
		s-3,13.8-7.9,18.8s-11.8,7.9-18.8,7.9c-6.9,0-12.8-2-17.8-6.9C339.6,478.4,336.6,472.5,336.6,463.6z M344.5,463.6
		c0,5.9,2,9.9,5.9,13.8c3.9,3.9,7.9,5.9,12.8,5.9s9.9-2,13.8-5.9c3.9-3.9,5.9-7.9,5.9-13.8c0-5.9-2-9.9-5.9-13.8
		c-3.9-3.9-7.9-5.9-13.8-5.9c-4.9,0-9.9,2-13.8,5.9C346.5,453.7,344.5,458.7,344.5,463.6z"/>
	<path fill="#FFFFFF" d="M417.5,467.6l15.8,21.7h-9.9l-14.8-20.7h-1v20.7h-7.9V438h8.9c6.9,0,11.8,1,14.8,3.9c3,3,4.9,6.9,4.9,10.9
		c0,3.9-1,6.9-3,8.9C423.5,465.6,420.5,467.6,417.5,467.6z M407.7,461.6h2c6.9,0,10.9-3,10.9-7.9s-3.9-7.9-10.9-7.9h-3v15.8H407.7z"
		/>
	<path fill="#FFFFFF" d="M448.1,458.7l19.7-20.7h9.9l-22.7,22.7l22.7,27.6h-9.9l-18.8-22.7l-2,2v20.7h-7.9V437h7.9v21.7H448.1z"/>
</g>
</svg>
