<?xml version="1.0" encoding="utf-8"?>
<!-- Generator: Adobe Illustrator 17.1.0, SVG Export Plug-In . SVG Version: 6.00 Build 0)  -->
<!DOCTYPE svg PUBLIC "-//W3C//DTD SVG 1.1//EN" "http://www.w3.org/Graphics/SVG/1.1/DTD/svg11.dtd">
<svg version="1.1" id="Capa_1" xmlns="http://www.w3.org/2000/svg" xmlns:xlink="http://www.w3.org/1999/xlink" x="0px" y="0px"
	 viewBox="0 0 612 792" enable-background="new 0 0 612 792" xml:space="preserve">
<g>
	<g>
		<polygon fill="#FFFFFF" points="245,304.9 213.9,487.5 263.7,487.5 294.8,304.9 		"/>
	</g>
</g>
<g>
	<g>
		<path fill="#FFFFFF" d="M172.2,305.1l-48.7,124.5l-5.2-18.8c-9.6-22.6-36.9-55.2-68.9-75.7L94,487.4l52.6-0.1l78.3-182.2
			L172.2,305.1z"/>
	</g>
</g>
<g>
	<g>
		<path fill="#FFFFFF" d="M99.4,318.2c-2.9-11.1-11.3-14.4-21.7-14.8H0.6L0,307c60,14.6,99.7,49.6,116.2,91.8L99.4,318.2z"/>
	</g>
</g>
<g>
	<g>
		<path fill="#FFFFFF" d="M395.6,339.9c16.3-0.3,28.1,3.3,37.2,7l4.5,2.1l6.7-39.6c-9.9-3.7-25.3-7.7-44.6-7.7
			c-49.2,0-83.8,24.8-84.1,60.2c-0.3,26.2,24.7,40.9,43.6,49.6c19.4,9,25.9,14.6,25.8,22.6c-0.2,12.2-15.5,17.8-29.7,17.8
			c-19.9,0-30.5-2.8-46.8-9.6l-6.4-2.9l-7,40.9c11.6,5.1,33.1,9.5,55.4,9.7c52.3,0,86.3-24.5,86.6-62.4
			c0.2-20.7-13.1-36.6-41.8-49.6c-17.4-8.5-28-14.1-27.9-22.6C367.1,348,376.2,339.9,395.6,339.9z"/>
	</g>
</g>
<g>
	<g>
		<path fill="#FFFFFF" d="M571.7,305.1h-38.4c-11.9,0-20.8,3.2-26.1,15.1l-73.9,167.3h52.2c0,0,8.5-22.5,10.5-27.4
			c5.7,0,56.5,0.1,63.7,0.1c1.5,6.4,6.1,27.3,6.1,27.3H612L571.7,305.1z M510.4,422.8c4.1-10.5,19.8-51,19.8-51
			c-0.3,0.5,4.1-10.6,6.6-17.4l3.4,15.7c0,0,9.5,43.6,11.5,52.7H510.4z"/>
	</g>
</g>
</svg>
