<?xml version="1.0" encoding="utf-8"?>
<!-- Generator: Adobe Illustrator 17.1.0, SVG Export Plug-In . SVG Version: 6.00 Build 0)  -->
<!DOCTYPE svg PUBLIC "-//W3C//DTD SVG 1.1//EN" "http://www.w3.org/Graphics/SVG/1.1/DTD/svg11.dtd">
<svg version="1.1" id="Capa_1" xmlns="http://www.w3.org/2000/svg" xmlns:xlink="http://www.w3.org/1999/xlink" x="0px" y="0px"
	 viewBox="0 0 612 792" enable-background="new 0 0 612 792" xml:space="preserve">
<g>
	<path fill="#FFFFFF" d="M360.1,396l240.7-240.7c15-14.9,15-39.2,0-54.1c-15-15-39.2-15-54.1,0L306,341.9L65.3,101.2
		c-15-15-39.2-15-54.1,0c-15,14.9-15,39.2,0,54.1L251.9,396L11.2,636.7c-15,14.9-15,39.2,0,54.1c7.5,7.5,17.3,11.2,27.1,11.2
		s19.6-3.7,27.1-11.2L306,450.1l240.7,240.7c7.5,7.5,17.3,11.2,27.1,11.2c9.8,0,19.6-3.7,27.1-11.2c15-14.9,15-39.2,0-54.1
		L360.1,396z"/>
</g>
</svg>
