<?xml version="1.0" encoding="utf-8"?>
<!-- Generator: Adobe Illustrator 17.1.0, SVG Export Plug-In . SVG Version: 6.00 Build 0)  -->
<!DOCTYPE svg PUBLIC "-//W3C//DTD SVG 1.1//EN" "http://www.w3.org/Graphics/SVG/1.1/DTD/svg11.dtd">
<svg version="1.1" id="Layer_2" xmlns="http://www.w3.org/2000/svg" xmlns:xlink="http://www.w3.org/1999/xlink" x="0px" y="0px"
	 viewBox="0 0 612 792" enable-background="new 0 0 612 792" xml:space="preserve">
<g>
	<path fill="#E04F5F" d="M611.9,394.5c0-169-137-305.9-305.9-305.9C137,88.6,0,225.5,0,394.5c0,169,137,305.9,305.9,305.9
		C474.9,700.5,611.9,563.5,611.9,394.5L611.9,394.5z M611.9,394.5"/>
	<path fill="#FFFFFF" d="M341.7,394.5l89.4-103.8c9.8-11.3,8.5-28.4-2.8-38.2c-11.3-9.7-28.4-8.5-38.2,2.8L305.9,353l-84.1-97.7
		c-9.8-11.3-26.9-12.6-38.2-2.8c-11.3,9.8-12.6,26.9-2.8,38.2l89.4,103.8l-89.4,103.8c-9.8,11.3-8.5,28.4,2.8,38.2
		c5.1,4.4,11.4,6.6,17.7,6.6c7.6,0,15.2-3.2,20.5-9.4l84.1-97.7l84.2,97.7c5.3,6.2,12.9,9.4,20.5,9.4c6.3,0,12.5-2.2,17.7-6.6
		c11.3-9.8,12.6-26.9,2.8-38.2L341.7,394.5z M341.7,394.5"/>
</g>
</svg>
