<?xml version="1.0" encoding="utf-8"?>
<!-- Generator: Adobe Illustrator 17.1.0, SVG Export Plug-In . SVG Version: 6.00 Build 0)  -->
<!DOCTYPE svg PUBLIC "-//W3C//DTD SVG 1.1//EN" "http://www.w3.org/Graphics/SVG/1.1/DTD/svg11.dtd">
<svg version="1.1" id="Layer_6" xmlns="http://www.w3.org/2000/svg" xmlns:xlink="http://www.w3.org/1999/xlink" x="0px" y="0px"
	 viewBox="0 0 612 792" enable-background="new 0 0 612 792" xml:space="preserve">
<g>
	<g>
		<rect x="297.4" y="506.6" width="20.3" height="223.3"/>
		<path d="M414.8,729.9c0,7.1-6.8,12.8-14.6,12.8h-183c-8.2,0-14.6-5.7-14.6-12.8l0,0c0-7.1,6.8-12.8,14.6-12.8h182.7
			C408,717.1,414.8,722.8,414.8,729.9L414.8,729.9z"/>
	</g>
	<g>
		<path fill="#A2191D" d="M207.9,265.1c0,0,1.4,8.9-0.7,21.4c22.5,3.9,103.5,15,202.6-0.4c-1.8-11.4-1.1-28.5,6.8-51.4
			c0,0,32.1-54.2-3.6-171.2c0,0-1.1-12.1-6.1-13.9c0,0-8.2-2.5-6.1,11.8c0,0,9.6,66-31.4,83.1c0,0-47.8,26.8-113.4,5.4
			c0,0-52.4-15.3-40.3-83.1c0,0,4.3-18.9-1.8-16.8c0,0-9.6-6.1-13.2,29.6c0,0-22.5,73.8-9.6,123.8
			C191.1,203.4,198.3,233,207.9,265.1z"/>
		<path fill="#A2191D" d="M414.8,303.2c0,0-0.4-0.4-0.7-1.1c-18.6,2.9-94.9,12.8-211.6,0c-0.7,1.8-1.4,3.6-2.1,5.4
			c0,0-51,109.9-71,251.5c0,0-7.1,56-2.5,72.1c0,0,55.3,35.7,291.5,16.8c0,0,50.7-6.1,71.4-16.1
			C489.7,631.5,488.7,478.8,414.8,303.2z"/>
	</g>
	<g>
		<path fill="#FFFFFF" d="M369.9,423.8c-3.6,3.6-8.9,3.6-12.5,0l0,0c-3.6-3.6-3.6-8.9,0-12.5l57.4-57.4c3.6-3.6,8.9-3.6,12.5,0l0,0
			c3.6,3.6,3.6,8.9,0,12.5L369.9,423.8z"/>
		<path fill="#FFFFFF" d="M357.4,366c-3.6-3.6-3.6-8.9,0-12.5l0,0c3.6-3.6,8.9-3.6,12.5,0l57.4,57.4c3.6,3.6,3.6,8.9,0,12.5l0,0
			c-3.6,3.6-8.9,3.6-12.5,0L357.4,366z"/>
	</g>
</g>
</svg>
