<?xml version="1.0" encoding="utf-8"?>
<!-- Generator: Adobe Illustrator 17.1.0, SVG Export Plug-In . SVG Version: 6.00 Build 0)  -->
<!DOCTYPE svg PUBLIC "-//W3C//DTD SVG 1.1//EN" "http://www.w3.org/Graphics/SVG/1.1/DTD/svg11.dtd">
<svg version="1.1" id="Layer_1" xmlns="http://www.w3.org/2000/svg" xmlns:xlink="http://www.w3.org/1999/xlink" x="0px" y="0px"
	 viewBox="0 0 523.5 226.5" enable-background="new 0 0 523.5 226.5" xml:space="preserve">
<g>
	<path d="M197.4,150.7c-17.4,5.6-35.5,8.7-54.2,9.2c-0.9,0-1.8,0-2.6,0c-0.8,0-1.6,0-2.4,0c-5.9,0-12.3-0.3-19-1
		c-6.7-0.7-13.5-1.7-20.3-3.2c-18.2-3.8-34.9-11-50.1-21.4C33.6,123.8,26,108.7,26,88.9L25.8,36c0-1.7-0.6-3.2-1.7-4.4
		c-1.2-1.2-2.6-1.8-4.3-1.8h-0.2h-3.2v-8.2h17.7v67.2c0,7.5,1.6,14.4,4.8,20.8c3.2,6.4,7.6,12,13.1,16.7c5.6-4.8,10-10.4,13.1-16.7
		c3.1-6.3,4.6-13.2,4.6-20.8V21.7h17.5v8.2h-3.2c-1.7,0-3.2,0.6-4.4,1.8c-1.2,1.2-1.8,2.7-1.8,4.4v52.9c0,8.4-1.6,16.1-4.9,23.3
		c-3.3,7.2-8,13.6-14.3,19.1c7.6,5.1,15.9,9.2,25,12.2c9.1,3,18.4,5.1,27.7,6.4c4.5,0.6,9,1.1,13.5,1.4c4.5,0.3,8.9,0.5,13.2,0.5
		c0.5,0,1,0,1.5,0c0.5,0,1,0,1.5,0c18-0.3,35.4-3.1,52.3-8.3c16.8-5.2,30.3-12.9,40.5-23.1l5.9,5.7C229,136.8,214.8,145,197.4,150.7
		z"/>
	<path d="M91.1,127.7v-8.2h3.3c1.7,0,3.1-0.6,4.3-1.8c1.2-1.2,1.8-2.6,1.9-4.2V58.2h-9.7v-8.2h9.7V35.9c-0.1-1.7-0.7-3.1-1.9-4.3
		c-1.2-1.2-2.6-1.7-4.3-1.7h-3.3v-8.2h51.7v17.5h-8.2V36v-0.2c-0.1-1.7-0.7-3.1-1.9-4.3c-1.2-1.2-2.6-1.7-4.3-1.7h-19.6v20.2h19v8.2
		h-19v61.3h19.8c1.6-0.1,3-0.7,4.2-1.9c1.2-1.2,1.8-2.5,1.9-4.2v-0.2V110h8.2v17.7H91.1z"/>
	<path d="M195,118.1c-6.4,6.4-14.1,9.6-23.1,9.6c-2.9,0-5.8-0.4-8.7-1.2c-2.9-0.8-5.6-1.9-8.1-3.3v4.5H147v-23.6h8.2v2.7v3.2
		c0,2.3,1,4.2,3,5.5c2,1.4,4.2,2.3,6.5,2.9c1.4,0.4,2.7,0.7,4,0.8c1.3,0.2,2.3,0.2,3.2,0.2c6.7,0,12.5-2.4,17.4-7.3
		c4.8-4.8,7.3-10.6,7.3-17.4c0-6.3-2-11.6-6.1-15.7c-4.1-4.1-8.6-7.9-13.5-11.3c-0.5-0.3-1-0.6-1.5-1c-0.5-0.4-1-0.7-1.5-1
		c-0.7-0.4-1.4-0.8-2-1.3c-0.7-0.5-1.3-0.9-1.9-1.3c-4.6-3.2-8.6-6.6-11.9-10c-3.3-3.5-5-7.8-5-13.1c0-5.3,1.9-9.8,5.7-13.3
		c3.8-3.5,8.2-5.2,13-5.1c1.1,0,2.2,0.1,3.3,0.3c1.1,0.2,2.2,0.5,3.2,0.9v-1.5h8.2v18h-8.2c0-0.5,0-1,0-1.6c0-0.6,0-1.1,0-1.7
		c0-2-0.7-3.5-2-4.6c-1.4-1.1-3-1.6-4.9-1.6c-0.1,0-0.2,0-0.3,0c-0.1,0-0.2,0-0.3,0c-2.4,0.2-4.6,1.2-6.6,3.1
		c-2,1.9-2.9,4.3-2.9,7.2c0,3.1,1.2,5.9,3.7,8.5c2.5,2.5,5.4,5,8.8,7.4c0.8,0.5,1.6,1,2.3,1.5c0.8,0.5,1.5,1,2.3,1.5
		c0.5,0.3,1,0.6,1.5,1c0.5,0.4,1,0.7,1.5,1c5.8,3.9,11.2,8.5,16,13.6c4.8,5.1,7.3,11.9,7.3,20.2C204.7,104,201.4,111.7,195,118.1z"
		/>
	<path d="M230.2,39.2V36c0-1.7-0.6-3.2-1.8-4.4c-1.2-1.2-2.7-1.8-4.4-1.8h-3.6v83.5c0,1.7,0.6,3.2,1.8,4.4c1.2,1.2,2.7,1.8,4.4,1.8
		h3.3v8.2h-27.2v-8.2h3.2c1.7,0,3.2-0.6,4.4-1.8c1.2-1.2,1.8-2.7,1.8-4.4V29.8h-3.5c-1.7,0-3.2,0.6-4.4,1.8
		c-1.2,1.2-1.8,2.7-1.8,4.4v3.2h-8.2V21.7h44.1v17.5H230.2z"/>
	<path d="M242.1,127.7v-8.2h3.3c1.7,0,3.2-0.6,4.4-1.8c1.2-1.2,1.8-2.7,1.8-4.4V36c0-1.7-0.6-3.2-1.8-4.4c-1.2-1.2-2.7-1.8-4.4-1.8
		h-3.3v-8.2h27.2v8.2H266c-1.7,0-3.2,0.6-4.4,1.8c-1.2,1.2-1.8,2.7-1.8,4.4v77.3c0,1.7,0.6,3.2,1.8,4.4c1.2,1.2,2.7,1.8,4.4,1.8h3.3
		v8.2H242.1z"/>
	<path d="M325.9,111.9c-10.2,10.3-22.6,15.6-37.1,15.8h-14.3v-8.2h3.2h0.2c1.7,0,3.2-0.6,4.4-1.9c1.2-1.3,1.8-2.7,1.8-4.3V36
		c0-1.7-0.6-3.2-1.8-4.4c-1.2-1.2-2.7-1.8-4.4-1.8h-3.3v-8.2h14.3c14.5,0.1,26.9,5.3,37.1,15.7c10.2,10.4,15.3,22.8,15.3,37.3
		C341.2,89.2,336.1,101.6,325.9,111.9z M321.2,44.3c-7.9-8.6-17.6-13.3-29.1-14.3v89.4c11.5-1,21.2-5.8,29.1-14.3
		c7.9-8.6,11.9-18.7,11.9-30.4C333,63,329.1,52.9,321.2,44.3z"/>
	<path d="M435.9,112.1c-10.4,10.4-22.9,15.6-37.6,15.6c-14.6,0-27.1-5.2-37.5-15.6c-10.4-10.4-15.6-22.9-15.6-37.5
		c0-14.7,5.2-27.2,15.6-37.5c10.4-10.3,22.9-15.5,37.5-15.5c14.7,0,27.2,5.2,37.6,15.5c10.4,10.3,15.6,22.8,15.6,37.5
		C451.4,89.3,446.3,101.8,435.9,112.1z M430,43c-8.8-8.8-19.3-13.1-31.7-13.1c-12.3,0-22.8,4.4-31.6,13.1
		c-8.8,8.8-13.2,19.3-13.2,31.7c0,12.3,4.4,22.8,13.2,31.6c8.8,8.8,19.4,13.2,31.6,13.2c12.4,0,23-4.4,31.7-13.2
		c8.8-8.8,13.1-19.4,13.1-31.6C443.1,62.3,438.8,51.7,430,43z"/>
	<path d="M498.4,118.1c-6.4,6.4-14.1,9.6-23.1,9.6c-2.9,0-5.8-0.4-8.7-1.2c-2.9-0.8-5.6-1.9-8.1-3.3v4.5h-8.2v-23.6h8.2v2.7v3.2
		c0,2.3,1,4.2,3,5.5c2,1.4,4.2,2.3,6.5,2.9c1.4,0.4,2.7,0.7,4,0.8c1.3,0.2,2.3,0.2,3.2,0.2c6.7,0,12.5-2.4,17.4-7.3
		c4.8-4.8,7.3-10.6,7.3-17.4c0-6.3-2-11.6-6.1-15.7c-4.1-4.1-8.6-7.9-13.5-11.3c-0.5-0.3-1-0.6-1.5-1c-0.5-0.4-1-0.7-1.5-1
		c-0.7-0.4-1.4-0.8-2-1.3c-0.7-0.5-1.3-0.9-1.9-1.3c-4.6-3.2-8.6-6.6-11.9-10c-3.3-3.5-5-7.8-5-13.1c0-5.3,1.9-9.8,5.7-13.3
		c3.8-3.5,8.2-5.2,13-5.1c1.1,0,2.2,0.1,3.3,0.3c1.1,0.2,2.2,0.5,3.2,0.9v-1.5h8.2v18h-8.2c0-0.5,0-1,0-1.6c0-0.6,0-1.1,0-1.7
		c0-2-0.7-3.5-2-4.6c-1.4-1.1-3-1.6-4.9-1.6c-0.1,0-0.2,0-0.3,0c-0.1,0-0.2,0-0.3,0c-2.4,0.2-4.6,1.2-6.6,3.1
		c-2,1.9-2.9,4.3-2.9,7.2c0,3.1,1.2,5.9,3.7,8.5c2.5,2.5,5.4,5,8.8,7.4c0.8,0.5,1.6,1,2.3,1.5c0.8,0.5,1.5,1,2.3,1.5
		c0.5,0.3,1,0.6,1.5,1c0.5,0.4,1,0.7,1.5,1c5.8,3.9,11.2,8.5,16,13.6c4.8,5.1,7.3,11.9,7.3,20.2C508.1,104,504.9,111.7,498.4,118.1z
		"/>
</g>
<g>
	<path d="M106.6,198.4c-1.6,2.7-3,5.3-4,7.6c-0.2,0.5-0.7,0.5-1,0.1c-0.6-0.8-0.8-2.4,0.3-5.4c0.3-0.8,0.8-1.9,1.4-3
		c-1.2-0.6-1.6-1.4-1.7-1.8c-0.3-0.7-0.2-0.9,0.6-0.8c0.7,0.1,1.5,0.2,2.4,0.3c4.1-7.2,11.5-17.7,17.1-22.3c0.8-0.7,1.4-0.7,1.9,0.1
		s0.7,0.8,1.2,2.2c0.5,1.3,0.5,2.4,0,3.9c-1.4,4.2-2.9,9.6-3.9,15.4c1.6,0.5,2.2,1.6,2.4,2.7c0.1,0.5-0.1,0.6-0.6,0.5
		c-0.6-0.2-1.4-0.3-2.3-0.3c-0.4,2.8-0.7,5.7-0.8,8.5c0,0.5-0.3,0.7-0.8,0.5c-1.1-0.5-1.9-1.8-2-4.8c0-1.1,0.1-2.4,0.2-4
		C113.4,197.8,109.1,198.4,106.6,198.4z M117.6,194.3c0.8-5.5,2.3-12.2,3.9-16.3c-4,4.5-8.9,10.9-12.9,17.2
		C111.8,194.9,115.1,194.3,117.6,194.3z"/>
	<path d="M128.8,205.1c2.5,0.2,6.3-3.6,8.3-7.7c0.4-0.7,1-0.7,1.2,0c0.3,0.8,0.1,2-0.5,3.3c-0.7,1.6-4.6,6-8.9,5.9
		c-3.7-0.1-5.6-2.6-4.4-8.4c2-9.2,8-18.8,13.4-24.4c0.8-0.8,1.5-1,2.3-0.3c1.5,1.4,1.9,3.3,1.2,5.8c-1.6,6.5-7.6,12.9-12.3,16
		C127,200.4,126.5,204.8,128.8,205.1z M139.7,178.2c-0.7-0.4-4.6,5.5-8.3,12.2c-0.5,0.8-0.9,1.7-1.3,2.5
		C137.4,187.1,140.3,178.6,139.7,178.2z"/>
	<path d="M140.2,206.6c-4.9,0-5.9-6.7-1.5-13.1c4.2-6.1,8.5-8.5,11.1-8.5c2.3,0,3.4,1.9,3.2,3.8c0.9-1.6,1.8-2.9,2.3-3.4
		c0.6-0.6,0.9-0.4,1.3,0.2c0.6,1.3,0.6,3.7-1.2,6.8c-3.2,5.8-9.5,16.7-13.7,26.7c-0.3,0.6-0.6,0.6-1,0.2c-0.7-0.8-1.4-1.9-0.5-4.9
		c0.6-2.2,2-5.6,3.7-9.1C142.9,206.1,141.6,206.6,140.2,206.6z M150.7,187.7c-1.7-0.1-5.6,3.3-8.5,7.9c-2.9,4.6-3.5,9.4-1.4,9.4
		c2.2,0,4.9-3.3,7.6-8.1C151.8,191.1,152.3,187.8,150.7,187.7z"/>
	<path d="M158.4,206.5c-3.8-0.3-3.9-4.2-2.7-7.7c1.2-3.5,3.9-8.7,7.3-13.5c0.4-0.6,1-0.5,1.4-0.1c1.2,1.7,0.9,4.1-1,7.2
		c-2,3.1-3,5.2-4.1,7.8c-1.1,2.6-1,4.5,0.3,4.6c2.1,0.2,5-3.6,7.8-8.2c3.3-5.4,4.9-9.1,6.6-11.3c0.5-0.7,0.9-0.8,1.3-0.3
		c0.8,1,1.2,3.3-0.1,5.9c-1.2,2.4-3.8,6.4-5,9.1c-1.4,3-1.2,5.2,0.7,5.1c2.2-0.1,4.9-3.6,7-7.3c0.3-0.5,0.7-0.5,1-0.1
		c0.2,0.4,0.3,1.9-0.5,3.3c-1.5,3-4.8,5.7-7.9,5.7c-3.4,0-4.8-2.2-4.4-5.2C164.2,204,161.4,206.7,158.4,206.5z"/>
	<path d="M177.2,198.9c1.3-3.9,4.8-10.1,6.8-12.9c0.5-0.6,0.8-0.8,1.3-0.3c0.8,0.8,1.2,3.1-0.1,5.8c-1.1,2.3-3.3,5.9-4.5,8.6
		c-1.3,3.1-1.2,5.1,0.5,5c2.4-0.1,5.3-3.6,6.9-7.3c0.3-0.5,0.6-0.4,0.8,0c0.4,0.8,0.3,2-0.4,3.3c-1.6,3.3-4.9,5.5-7.9,5.5
		C176.7,206.6,175.7,203.2,177.2,198.9z M189,185.1c-0.7,0.7-2.2,0.6-3-0.8c-0.8-1.4-0.6-3,0.3-3.9c0.8-0.9,2.4-0.3,3.1,1.2
		C190.1,182.9,189.7,184.3,189,185.1z"/>
	<path d="M192.4,205.1c2.5,0.2,6.3-3.6,8.3-7.7c0.4-0.7,1-0.7,1.2,0c0.3,0.8,0.1,2-0.5,3.3c-0.7,1.6-4.6,6-8.9,5.9
		c-3.7-0.1-5.6-2.6-4.4-8.4c2-9.2,8-18.8,13.4-24.4c0.8-0.8,1.5-1,2.3-0.3c1.5,1.4,1.9,3.3,1.2,5.8c-1.6,6.5-7.6,12.9-12.3,16
		C190.6,200.4,190.1,204.8,192.4,205.1z M203.3,178.2c-0.7-0.4-4.6,5.5-8.3,12.2c-0.5,0.8-0.9,1.7-1.3,2.5
		C201,187.1,203.9,178.6,203.3,178.2z"/>
	<path d="M227.7,206.6c-4-0.2-5.6-3.8-4.3-8.1c1.1-3.5,4.3-7.5,6.6-10c-2.3,1.5-4.7,2-6.4,2c-4.4,9.2-10.1,15.9-16.4,16
		c-6.7,0.1-9-6.5-5.6-13.2c3.3-6.6,8.7-9.5,11.4-8c1.3,0.8,2.3,1.5,3.1,2.7c0.9,1.3,0.4,4.4-1.7,7.1c-2.5,3.2-6,4.6-9.8,1.6
		c-1.7,4.8-0.4,8.3,2.3,8.4c5.8,0.3,11.7-8.1,14.6-14.8c-4.1-1.7,1.1-8.7,3.3-8.9c1.6-0.1,1.1,3.2-0.2,6.6c1.9-0.3,3.7-1.1,5.8-2.5
		c0.6-0.4,1.1-0.7,1.5-0.2c1.1,1.2,2.4,3.7,0.8,5.5c-2.5,2.8-5.2,6.4-6.1,9.2c-0.9,2.9-0.3,5,1.3,5.1c2.2,0.1,4.9-3.4,6.6-7.3
		c0.2-0.4,0.6-0.5,0.8-0.1c0.3,0.6,0.4,2-0.3,3.4C233.8,204.4,230.6,206.8,227.7,206.6z M211.4,192.9c1.7-2.2,2.8-4.9,2.1-5.5
		c-1.2-1-5.5,2.3-7.9,7.2c-0.2,0.3-0.3,0.6-0.4,0.9C207.7,197.1,209.8,194.9,211.4,192.9z"/>
	<path d="M257.3,198.7c-2.6,0.3-4.2-0.5-4.9-2.1c-0.2-0.5-0.2-0.8,0.5-0.8c3.3,0.1,7.6-1.5,10.9-1.7c2.5-0.2,4,1,4.8,2.5
		c0.2,0.6,0.1,0.9-0.5,0.8c-1.7-0.2-3.6,0-5.4,0.3c0.4,1.5-0.1,3.5-1.8,5.7c-3,3.9-9.8,6.9-14.8,2.5c-5.7-5-1.1-14.4,7.3-16.8
		c-1.7-0.6-3-1.9-3.1-4.1c-0.3-5.2,5.7-9.8,9.2-10.9c2.7-0.8,5.1-1.3,7.5,0.8c2.3,2,2.4,3.6,1.2,6.3c-0.7,1.6-1.7,3.8-2.2,5.1
		c-0.2,0.4-0.5,0.6-1.1,0.3c-1.2-0.6-2.1-2.4-1.2-5.1c1-2.9,2.6-4.5,1.7-5.4c-1.6-1.5-11.7,4.3-11.3,9.6c0.2,2.1,1.8,2.4,3.9,2.4
		c2.6-0.1,3.6,1.3,3.9,2.2c0.2,0.5-0.1,0.7-0.6,0.7c-7.8,0.6-14.4,5.5-14.5,10.5c-0.1,2.2,1.2,3.8,3.6,4c2.6,0.2,7.2-2.1,9.6-7.3
		C258.8,198.5,258.1,198.7,257.3,198.7z"/>
	<path d="M283.1,176.6c-0.3-0.6-0.1-0.8,0.5-0.9c3.7-0.3,8.5-2.9,12-3.1c2.7-0.2,5.3,0.7,6.3,4.3c1,3.6-0.1,6.5-1.9,8.8
		c-1.5,2-4.3,4.6-8.3,6.3c1,0.5,1.9,1.2,2.5,2.2c1.1,1.6,1.1,4.8-1.2,7.3c-2.3,2.5-6.3,4.4-9.3,4.9c-2,0.4-3.3,0.3-4.5-0.3
		c-1.1-0.5-2-1.4-2.7-2.4c-0.8-1.2-1.3-2-0.1-5.4c2.1-5.9,6.1-13.7,10.1-19.6C284.6,178.7,283.5,177.5,283.1,176.6z M286.1,193.6
		c-1.5,0.2-2.5,0-3.3-0.4c-1.4,2.8-2.8,5.6-3.6,8.2c-0.6,1.9,0,2.5,1.7,2.3c3.4-0.4,7.9-2.6,10.2-5.4c2-2.4,2-4.8-2.9-5.1
		C287.6,193.4,286.9,193.5,286.1,193.6z M300,177.4c-1.1-2.8-6.3-0.3-10,0.8c0.1,1.2-0.3,2.8-1.6,5.2c-1.1,2-2.6,4.5-4.1,7.2
		C294.8,188.1,301.3,181,300,177.4z"/>
	<path d="M331.6,206.7c-3.4,0-4.8-2.1-4.3-5.2c-1.9,2.4-4.6,5.2-7.6,5c-3.8-0.3-3.9-4.2-2.7-7.7c0.4-1.3,1.1-2.9,2-4.6
		c-1.5,0.7-3.1,1.1-4.8,1c-1.2,4.5-4.5,9.7-8.2,11c-2,0.6-4.7,0.4-6.7-2.3c-2.3-3.1-1.5-7.7,0.8-11.9c2-3.7,5.3-6.6,8.5-6.8
		c1.6-0.1,2.5,0.4,3.6,1.8c1.3,1.6,2.8,1.9,2.5,5.8c0,0.3-0.1,0.6-0.1,1.1c3-0.1,5.9-2.5,7.7-5.5c0.5-0.8,1.4-2,2-2.9
		c0.4-0.6,0.9-0.5,1.3-0.1c1.2,1.7,0.9,4-1,7.1c-1.9,3.1-3.1,5.2-4.1,7.7c-1.1,2.6-0.9,4.5,0.3,4.6c2.1,0.2,5-3.4,7.8-8.1
		c3.3-5.4,4.8-9,6.5-11.3c0.5-0.7,0.9-0.8,1.3-0.3c0.8,1,1.2,3.2-0.1,5.9c-1.2,2.4-3.8,6.3-5,9c-1.4,3.1-1.2,5.2,0.7,5.1
		c2.2-0.1,4.9-3.6,6.9-7.3c0.3-0.5,0.7-0.5,1-0.1c0.3,0.5,0.3,1.9-0.5,3.3C338,204.1,334.7,206.7,331.6,206.7z M307.4,189
		c-1.4,1.2-3,3-4.1,5c-2.2,4-3,8.8-1.6,10c1.4,1.2,4.7-0.7,7.3-5.5c0.8-1.5,1.4-3,1.9-4.3C309,193.3,307.4,191.2,307.4,189z
		 M310,189.2c-0.2,1.4,0.3,2.8,1.2,3.6c0.4-1.5,0.5-2.9,0.4-3.8C311.4,187.3,310.2,187.7,310,189.2z"/>
	<path d="M341.4,183.9c-0.5-0.7-0.2-1.1,0.6-1.1c1.5,0.1,3-0.1,4.4-0.2c1.6-2.9,3.1-5.4,4-6.6c0.5-0.7,1-0.6,1.3,0
		c0.6,1.5,0.6,3.2-0.7,6c2.1-0.1,2.9,0.9,3.3,1.6c0.4,0.6,0.2,1-0.6,1c-1.2-0.2-2.8,0-4.1,0.2c-2.1,3.5-5.1,8.7-7.1,13.1
		c-1.7,3.9-1.2,7.2,1.1,7.3c2.4,0.1,5.4-3.7,7.4-7.6c0.3-0.6,0.9-0.7,1.1,0c0.3,0.8,0,1.8-0.5,3c-0.7,1.5-4.2,6.2-8.4,6
		c-3.5-0.1-6.3-4-3.8-10.1c1.1-2.6,3.3-7.1,5.6-11.3C343,185.2,341.8,184.4,341.4,183.9z"/>
	<path d="M349.6,198.9c1.3-3.9,4.8-10.1,6.8-12.9c0.5-0.6,0.8-0.8,1.3-0.3c0.8,0.8,1.2,3.1-0.1,5.8c-1.1,2.3-3.3,5.9-4.5,8.6
		c-1.3,3.1-1.2,5.1,0.5,5c2.4-0.1,5.3-3.6,6.9-7.3c0.3-0.5,0.6-0.4,0.8,0c0.4,0.8,0.3,2-0.4,3.3c-1.6,3.3-4.9,5.5-7.9,5.5
		C349.2,206.6,348.2,203.2,349.6,198.9z M361.5,185.1c-0.7,0.7-2.2,0.6-3-0.8c-0.8-1.4-0.6-3,0.3-3.9c0.8-0.9,2.4-0.3,3.1,1.2
		C362.5,182.9,362.1,184.3,361.5,185.1z"/>
	<path d="M364.3,206.6c-4.9,0-5.9-6.7-1.5-13.1c4.2-6.1,8.5-8.5,11.1-8.5c2.3,0,3.4,1.9,3.2,3.8c0.9-1.6,1.8-2.9,2.3-3.4
		c0.6-0.6,0.9-0.4,1.3,0.2c0.6,1.3,0.6,3.7-1.2,6.8c-3.2,5.8-9.5,16.7-13.7,26.7c-0.3,0.6-0.6,0.6-1,0.2c-0.7-0.8-1.4-1.9-0.5-4.9
		c0.6-2.2,2-5.6,3.7-9.1C366.9,206.1,365.6,206.6,364.3,206.6z M374.8,187.7c-1.7-0.1-5.6,3.3-8.5,7.9c-2.9,4.6-3.5,9.4-1.4,9.4
		c2.2,0,4.9-3.3,7.6-8.1C375.8,191.1,376.3,187.8,374.8,187.7z"/>
	<path d="M382.4,206.5c-3.8-0.3-3.9-4.2-2.7-7.7c1.2-3.5,3.9-8.7,7.3-13.5c0.4-0.6,1-0.5,1.4-0.1c1.2,1.7,0.9,4.1-1,7.2
		c-2,3.1-3,5.2-4.1,7.8c-1.1,2.6-1,4.5,0.3,4.6c2.1,0.2,5-3.6,7.8-8.2c3.3-5.4,4.9-9.1,6.6-11.3c0.5-0.7,0.9-0.8,1.3-0.3
		c0.8,1,1.2,3.3-0.1,5.9c-1.2,2.4-3.8,6.4-5,9.1c-1.4,3-1.2,5.2,0.7,5.1c2.2-0.1,4.9-3.6,7-7.3c0.3-0.5,0.7-0.5,1-0.1
		c0.2,0.4,0.3,1.9-0.5,3.3c-1.5,3-4.8,5.7-7.9,5.7c-3.4,0-4.8-2.2-4.4-5.2C388.2,204,385.4,206.7,382.4,206.5z"/>
	<path d="M408.4,205.2c4.4,0.2,8.3-4,10.5-7.5c0.3-0.4,0.7-0.4,0.9,0.1c0.2,0.4,0.1,1.9-0.9,3.3c-2.2,3.2-6.3,5.7-10.4,5.7
		c-6.7,0.1-9.1-6.5-5.6-13.4c3.4-6.8,8.8-9.6,11.5-8.1c1.3,0.8,2.3,1.6,3.1,2.8c1,1.3,0.5,4.5-1.7,7.2c-2.6,3.2-6.1,4.6-9.9,1.5
		C404.3,201.7,405.6,205,408.4,205.2z M412.8,193c1.7-2.2,2.9-5,2.1-5.6c-1.1-0.9-5.5,2.3-8,7.3c-0.2,0.3-0.3,0.6-0.4,0.9
		C409,197.3,411.2,195,412.8,193z"/>
</g>
</svg>
