<?xml version="1.0" encoding="utf-8"?>
<!-- Generator: Adobe Illustrator 17.1.0, SVG Export Plug-In . SVG Version: 6.00 Build 0)  -->
<!DOCTYPE svg PUBLIC "-//W3C//DTD SVG 1.1//EN" "http://www.w3.org/Graphics/SVG/1.1/DTD/svg11.dtd">
<svg version="1.1" id="Capa_1" xmlns="http://www.w3.org/2000/svg" xmlns:xlink="http://www.w3.org/1999/xlink" x="0px" y="0px"
	 viewBox="0 74 612 639" enable-background="new 0 74 612 639" xml:space="preserve">
<g>
	<g>
		<g>
			<path fill="#FFFFFF" d="M200.2,346.3c14,0,25.5-11.5,25.5-25.5v-99.4c0-44.6,35.7-80.3,80.3-80.3s80.3,35.7,80.3,80.3v99.4
				c0,14,11.5,25.5,25.5,25.5c14,0,25.5-11.5,25.5-25.5v-99.4c1.3-72.7-57.4-131.3-130-131.3s-131.3,58.6-131.3,131.3v99.4
				C174.7,334.8,186.2,346.3,200.2,346.3z"/>
			<path fill="#FFFFFF" d="M599.3,288.9H464.1v31.9c0,28.1-22.9,51-51,51c-28,0-51-22.9-51-51v-31.9H252.5v31.9
				c0,28.1-22.9,51-51,51s-51-22.9-51-51v-31.9H12.8c-7.7,0-11.5,5.1-10.2,12.8L91.8,665c6.4,20.4,26.8,37,48.5,37h331.5
				c21.7,0,42.1-16.6,48.5-37l89.3-363.4C610.7,295.3,606.9,288.9,599.3,288.9z"/>
		</g>
	</g>
</g>
</svg>
