<?xml version="1.0" encoding="utf-8"?>
<!-- Generator: Adobe Illustrator 17.1.0, SVG Export Plug-In . SVG Version: 6.00 Build 0)  -->
<!DOCTYPE svg PUBLIC "-//W3C//DTD SVG 1.1//EN" "http://www.w3.org/Graphics/SVG/1.1/DTD/svg11.dtd">
<svg version="1.1" id="Layer_1" xmlns="http://www.w3.org/2000/svg" xmlns:xlink="http://www.w3.org/1999/xlink" x="0px" y="0px"
	 viewBox="0 0 612 792" enable-background="new 0 0 612 792" xml:space="preserve">
<g id="XMLID_798_">
	<path id="XMLID_799_" fill="#FFFFFF" d="M484.1,152.7C442,112.3,383.7,90,320,90c-97.4,0-157.2,39.9-190.3,73.4
		c-40.8,41.3-64.2,96-64.2,150.3c0,68.1,28.5,120.4,76.2,139.9c3.2,1.3,6.4,2,9.6,2c10.1,0,18-6.6,20.8-17.2c1.6-6.1,5.3-21,7-27.5
		c3.5-12.8,0.7-19-6.9-27.9c-13.8-16.3-20.2-35.6-20.2-60.8c0-74.6,55.6-154,158.6-154c81.7,0,132.5,46.5,132.5,121.2
		c0,47.2-10.2,90.9-28.6,123.1c-12.8,22.4-35.4,49-70,49c-15,0-28.4-6.2-36.9-16.9c-8-10.1-10.7-23.2-7.4-36.9
		c3.6-15.4,8.6-31.5,13.4-47.1c8.8-28.4,17.1-55.2,17.1-76.6c0-36.6-22.5-61.2-56-61.2c-42.6,0-75.9,43.2-75.9,98.4
		c0,27.1,7.2,47.3,10.5,55.1c-5.4,22.7-37.2,157.8-43.3,183.3c-3.5,14.9-24.6,132.3,10.3,141.7c39.2,10.5,74.2-103.9,77.7-116.8
		c2.9-10.5,13-50.3,19.2-74.7c18.9,18.2,49.3,30.5,79,30.5c55.8,0,106.1-25.1,141.4-70.7c34.3-44.3,53.2-105.9,53.2-173.7
		C546.5,243,523.8,190.8,484.1,152.7z"/>
</g>
</svg>
