<?xml version="1.0" encoding="utf-8"?>
<!-- Generator: Adobe Illustrator 17.1.0, SVG Export Plug-In . SVG Version: 6.00 Build 0)  -->
<!DOCTYPE svg PUBLIC "-//W3C//DTD SVG 1.1//EN" "http://www.w3.org/Graphics/SVG/1.1/DTD/svg11.dtd">
<svg version="1.1" id="Capa_1" xmlns="http://www.w3.org/2000/svg" xmlns:xlink="http://www.w3.org/1999/xlink" x="0px" y="0px"
	 viewBox="119 181 314 294" enable-background="new 119 181 314 294" xml:space="preserve">
<g>
	<path d="M316.3,249.6h-20.3c-22.8,0-37.6,15.1-37.6,38.5v17.7H238c-1.8,0-3.3,1.5-3.3,3.3v25.7c0,1.8,1.5,3.3,3.3,3.3h20.3v64.9
		c0,1.8,1.5,3.3,3.3,3.3h26.7c1.8,0,3.3-1.5,3.3-3.3v-65h23.9c1.8,0,3.3-1.5,3.3-3.3v-25.7c0-0.8-0.3-1.6-1-2.3
		c-0.7-0.7-1.5-1-2.3-1h-24.1v-15c0-7.2,1.8-10.9,11.1-10.9h13.7c1.8,0,3.3-1.5,3.3-3.3v-23.7C319.3,251,318,249.6,316.3,249.6z"/>
</g>
<path fill="none" stroke="#000000" stroke-width="3" stroke-miterlimit="10" d="M413.1,451.5c0,2.4-1.9,4.3-4.3,4.3H145.3
	c-2.4,0-4.3-1.9-4.3-4.3V204.3c0-2.4,1.9-4.3,4.3-4.3h263.6c2.4,0,4.3,1.9,4.3,4.3V451.5z"/>
</svg>
