<?xml version="1.0" encoding="utf-8"?>
<!-- Generator: Adobe Illustrator 17.1.0, SVG Export Plug-In . SVG Version: 6.00 Build 0)  -->
<!DOCTYPE svg PUBLIC "-//W3C//DTD SVG 1.1//EN" "http://www.w3.org/Graphics/SVG/1.1/DTD/svg11.dtd">
<svg version="1.1" id="Capa_1" xmlns="http://www.w3.org/2000/svg" xmlns:xlink="http://www.w3.org/1999/xlink" x="0px" y="0px"
	 viewBox="0 0 612 792" enable-background="new 0 0 612 792" xml:space="preserve">
<g>
	<g>
		<path fill="#FFFFFF" d="M420.8,90H191.3C85.6,90,0,175.6,0,281.3v229.5C0,616.4,85.6,702,191.3,702h229.5
			C526.4,702,612,616.4,612,510.8V281.3C612,175.6,526.4,90,420.8,90z M554.6,510.8c0,73.8-60.1,133.9-133.9,133.9H191.3
			c-73.8,0-133.9-60.1-133.9-133.9V281.3c0-73.8,60.1-133.9,133.9-133.9h229.5c73.8,0,133.9,60.1,133.9,133.9V510.8z"/>
	</g>
</g>
<g>
	<g>
		<path fill="#FFFFFF" d="M306,243c-84.5,0-153,68.5-153,153s68.5,153,153,153s153-68.5,153-153S390.5,243,306,243z M306,491.6
			c-52.7,0-95.6-42.9-95.6-95.6c0-52.7,42.9-95.6,95.6-95.6s95.6,42.9,95.6,95.6C401.6,448.7,358.7,491.6,306,491.6z"/>
	</g>
</g>
<g>
	<g>
		<circle fill="#FFFFFF" cx="470.5" cy="231.5" r="20.4"/>
	</g>
</g>
</svg>
