<?xml version="1.0" encoding="utf-8"?>
<!-- Generator: Adobe Illustrator 17.1.0, SVG Export Plug-In . SVG Version: 6.00 Build 0)  -->
<!DOCTYPE svg PUBLIC "-//W3C//DTD SVG 1.1//EN" "http://www.w3.org/Graphics/SVG/1.1/DTD/svg11.dtd">
<svg version="1.1" id="Capa_1" xmlns="http://www.w3.org/2000/svg" xmlns:xlink="http://www.w3.org/1999/xlink" x="0px" y="0px"
	 viewBox="0 0 612 792" enable-background="new 0 0 612 792" xml:space="preserve">
<g>
	<g>
		<path fill="#FFFFFF" d="M586,226.2c-16.6-29.5-34.6-35-71.3-37c-36.6-2.5-128.8-3.5-208.6-3.5c-80,0-172.2,1-208.8,3.5
			c-36.6,2.1-54.7,7.5-71.4,37.1C8.8,255.7,0,306.5,0,395.9c0,0.1,0,0.1,0,0.1c0,0.1,0,0.1,0,0.1v0.1c0,89,8.8,140.2,25.9,169.4
			c16.8,29.5,34.8,34.9,71.4,37.4c36.6,2.1,128.8,3.4,208.8,3.4c79.8,0,172-1.3,208.7-3.4c36.7-2.5,54.7-7.8,71.3-37.4
			c17.3-29.2,26-80.4,26-169.4c0,0,0-0.1,0-0.2c0,0,0-0.1,0-0.1C612,306.5,603.3,255.7,586,226.2z M229.5,510.8V281.3L420.8,396
			L229.5,510.8z"/>
	</g>
</g>
</svg>
