<?xml version="1.0" encoding="utf-8"?>
<!-- Generator: Adobe Illustrator 17.1.0, SVG Export Plug-In . SVG Version: 6.00 Build 0)  -->
<!DOCTYPE svg PUBLIC "-//W3C//DTD SVG 1.1//EN" "http://www.w3.org/Graphics/SVG/1.1/DTD/svg11.dtd">
<svg version="1.1" id="Capa_1" xmlns="http://www.w3.org/2000/svg" xmlns:xlink="http://www.w3.org/1999/xlink" x="0px" y="0px"
	 viewBox="0 0 612 792" enable-background="new 0 0 612 792" xml:space="preserve">
<g>
	<g>
		<path fill="#FFFFFF" d="M596.2,197.7H15.8C7,197.7,0,204.8,0,213.5v365.1c0,8.7,7,15.8,15.8,15.8h580.5c8.7,0,15.8-7.1,15.8-15.8
			V213.5C612,204.8,605,197.7,596.2,197.7z M150.6,378.9l-1.8-4.1v0.2c0,5.3-4.3,9.6-9.6,9.6h-28.3c-3.9,0-7.4-2.4-8.9-5.9l-2.9-7
			H83l-2.9,7.1c-1.5,3.6-5,5.9-8.8,5.9H56.1c-3.2,0-6.2-1.6-8-4.3c-1.8-2.7-2.1-6.1-0.8-9.1l24.9-58.2c1.5-3.5,5-5.8,8.8-5.8h20.6
			c3.8,0,7.3,2.3,8.8,5.8l5.2,12.2v-8.4c0-5.3,4.3-9.6,9.6-9.6H148c3.7,0,7.1,2.2,8.7,5.6l9.1,19.7l8.3-19.5c1.5-3.6,5-5.9,8.8-5.9
			H206c2,0,3.7,0.7,5.2,1.7c1.5-1,3.2-1.7,5.2-1.7h46.4c1.8,0,3.4,0.6,4.8,1.5c1.4-0.9,3-1.5,4.8-1.5h32c8.3,0,15.1,0.3,21.6,4.1
			c0.7,0.4,1.1,0.9,1.7,1.3c1.6-3.2,4.8-5.4,8.5-5.4h14.2c4.8,0,8.6,3.6,9.3,8.2c6.2-5.4,14.7-8.2,26.1-8.2h13.4
			c2.1,0,4.1,0.7,5.7,1.9c1.6-1.2,3.6-1.9,5.7-1.9h20.8c3.8,0,7.3,2.3,8.8,5.8l5.1,11.9v-8.2c0-5.3,4.3-9.6,9.6-9.6h21.2
			c3.4,0,6.5,1.8,8.2,4.6l6.6,11v-6c0-5.3,4.3-9.6,9.6-9.6H515c5.3,0,9.6,4.3,9.6,9.6V375c0,5.3-4.3,9.6-9.6,9.6h-19.7
			c-3.4,0-6.5-1.8-8.2-4.6l-8.5-14.1v9.2c0,5.3-4.3,9.6-9.6,9.6h-28.3c-3.9,0-7.3-2.3-8.9-5.9l-2.9-7.1h-16l-2.8,7
			c-1.4,3.6-5,6-8.9,6h-16.3c-6.2,0-17.3-1.1-25.2-7.7c-0.9,4.4-4.6,7.7-9.2,7.7h-14.2c-1.6,0-3-0.5-4.3-1.2
			c-1.3,0.7-2.7,1.2-4.3,1.2h-14c-5.3,0-9.6-4.3-9.6-9.5l-0.1-7.3l0-1.3c0-0.8,0-2,0-2.9c-0.6,0-1.5-0.1-2.7-0.1h-5.3V375
			c0,5.3-4.3,9.6-9.6,9.6h-13.9c-1.8,0-3.4-0.6-4.8-1.5c-1.4,0.9-3,1.5-4.8,1.5h-46.4c-2,0-3.7-0.7-5.2-1.7c-1.5,1-3.2,1.7-5.2,1.7
			h-14.2c-5.3,0-9.6-4.3-9.6-9.6v-0.2l-1.8,4.1c-1.5,3.5-5,5.7-8.8,5.7h-12.2C155.5,384.6,152.1,382.4,150.6,378.9z M534.1,484.7
			H507c-4,0-7.4-2.4-8.8-5.8c-5.3,3.7-12.3,5.8-20.9,5.8h-27.1c-1.5,0-2.9-0.4-4.2-1c-1.3,0.6-2.6,1-4.2,1h-46.4
			c-1.5,0-3-0.4-4.2-1.1c-1.3,0.6-2.7,1.1-4.2,1.1h-13.9c-5.3,0-9.6-4.3-9.6-9.6v-8.5c0-0.8,0-2.1,0-3.1c-0.6,0-1.5-0.1-2.8-0.1
			h-5.2v11.6c0,5.3-4.3,9.6-9.6,9.6h-14c-5.3,0-9.6-4.3-9.6-9.6v-14.8c-4.9,2.9-11.7,4.9-21.1,4.9h-7.7v9.9c0,5.3-4.3,9.6-9.6,9.6
			h-27c-2.7,0-5.4-1.2-7.2-3.2l-10.1-11.3l-10.6,11.5c-1.8,2-4.4,3.1-7,3.1h-55.1c-5.3,0-9.6-4.3-9.6-9.6V417c0-5.3,4.3-9.6,9.6-9.6
			h55.9c2.7,0,5.3,1.1,7.1,3.2l10.1,11.2l10.5-11.4c1.8-2,4.4-3.1,7-3.1h44.4c9.7,0,16.6,2.2,21.4,5.3c1.6-3.1,4.7-5.3,8.5-5.3h32.1
			c7.4,0,14.5,0.3,21.2,3.9c0.7,0.4,1.2,1,1.9,1.4c1.6-3.1,4.7-5.3,8.5-5.3h46.4c3.6,0,6.6,2.1,8.3,5c4.6-3.1,10.6-5,18.3-5h27.8
			c4.2,0,7.6,2.7,9,6.4c4.8-3.9,11.3-6.4,20-6.4h27.9c5.3,0,9.6,4.3,9.6,9.6v12.4c0,3.4-1.7,6.4-4.4,8.1c0.1,0.1,0.2,0.2,0.3,0.3
			c4.8,4.9,6.9,10.9,6.9,19.1C565.5,474.3,553.8,484.7,534.1,484.7z"/>
	</g>
</g>
<g>
	<g>
		<path fill="#FFFFFF" d="M318.4,348c3.6-1.4,9.8-6.2,9.8-15.5c0-6.5-2.6-10.3-7-12.9c-4.5-2.6-9.7-2.8-16.8-2.8h-32V375h13.9v-21.1
			h14.9c5,0,8.1,0.4,10.1,2.5c2.5,2.8,2.2,7.8,2.2,11.3l0.1,7.3h14v-11.4c0-5.2-0.3-7.8-2.3-10.7C324.1,351.2,321.5,349.2,318.4,348
			z M310.1,340.7c-1.9,1.2-4.2,1.2-6.9,1.2h-16.9l0-12.9h17.1c2.4,0,4.9,0.1,6.6,1.1c1.8,0.8,2.9,2.6,2.9,5.1
			C312.9,337.7,311.9,339.8,310.1,340.7z"/>
	</g>
</g>
<g>
	<g>
		<rect x="336.3" y="316.9" fill="#FFFFFF" width="14.2" height="58.2"/>
	</g>
</g>
<g>
	<g>
		<path fill="#FFFFFF" d="M500.8,316.9v40.5l-24.4-40.5h-21.2v55l-23.5-55h-20.8l-19.6,45.7H385c-3.6,0-7.6-0.7-9.7-3
			c-2.6-2.9-3.8-7.4-3.8-13.6c0-6.1,1.6-10.7,4-13.2c2.8-2.7,5.6-3.4,10.7-3.4h13.2v-12.5h-13.4c-9.6,0-16.6,2.1-21.1,6.8
			c-6,6.2-7.5,14.1-7.5,22.7c0,10.6,2.6,17.3,7.5,22.2c4.8,4.9,13.4,6.4,20.2,6.4h16.3l5.2-13h28.9l5.4,13H469v-43.6l26.4,43.6H515
			v-58.2H500.8L500.8,316.9z M411.4,349.9l9.5-23.2l9.6,23.2H411.4z"/>
	</g>
</g>
<g>
	<g>
		<polygon fill="#FFFFFF" points="441.9,429 441.9,417 395.5,417 395.5,475.1 441.9,475.1 441.9,463.1 409.4,463 409.4,451.4 
			441.1,451.4 441.1,439.6 409.4,439.6 409.4,429 		"/>
	</g>
</g>
<g>
	<g>
		<path fill="#FFFFFF" d="M301.9,417h-44.4l-17.7,19l-17.1-19h-55.9v58.2h55.1l17.8-19.3l17.1,19.3h27v-19.5h17.3
			c12.1,0,24.2-3.3,24.2-19.5C325.3,420,312.9,417,301.9,417z M214.8,463h-34.2v-11.6h30.5v-11.9h-30.5V429h34.8l15.2,16.9
			L214.8,463z M269.9,469.8l-21.3-23.7l21.3-22.9V469.8z M301.7,443.8h-17.9V429h18.1c5,0,8.5,2,8.5,7.1
			C310.4,441.2,307.1,443.8,301.7,443.8z"/>
	</g>
</g>
<g>
	<g>
		<path fill="#FFFFFF" d="M378,448.1c3.6-1.5,9.8-6.2,9.9-15.5c0-6.6-2.8-10.3-7.1-12.9c-4.6-2.4-9.7-2.7-16.7-2.7h-32.1v58.2h14
			v-21.2h14.8c5.1,0,8.2,0.5,10.2,2.6c2.6,2.7,2.2,7.9,2.2,11.4v7.3h13.9v-11.5c0-5.1-0.3-7.8-2.3-10.6
			C383.6,451.3,381,449.2,378,448.1z M369.6,440.9c-1.9,1.1-4.2,1.2-6.9,1.2h-16.9V429h17.1c2.4,0,4.9,0.1,6.6,1.1
			c1.8,0.9,2.9,2.8,2.9,5.2C372.4,437.8,371.4,439.8,369.6,440.9z"/>
	</g>
</g>
<g>
	<g>
		<path fill="#FFFFFF" d="M495,444.4c-3.2-3.2-8.4-4.5-15.9-4.6l-7.5-0.2c-2.4,0-3.9-0.2-5.4-0.7c-1.7-0.7-3-2.1-3-4.3
			c0-1.8,0.6-3.2,2.1-4.2c1.4-0.9,3-1.1,5.6-1.1h25.5v-12.4h-27.8c-14.6,0-19.9,8.9-19.9,17.3c0,18.4,16.3,17.6,29.3,18
			c2.4,0,3.9,0.4,5,1.3c1,0.8,1.7,2.1,1.7,3.8c0,1.6-0.7,2.9-1.6,3.8c-1.2,1.1-3,1.4-5.7,1.4h-27v12.5h27.1c14,0,21.8-5.8,21.8-18.4
			C499.2,450.8,497.7,447.2,495,444.4z"/>
	</g>
</g>
<g>
	<g>
		<path fill="#FFFFFF" d="M182.8,316.9l-16.7,39.5L148,316.9h-22.7v55.1l-23.7-55.1H81L56.1,375h15.1l5.4-13h28.9l5.3,13h28.3v-45.6
			l20.2,45.6l12.2,0l20.2-45.5l0.1,45.5H206v-58.2L182.8,316.9L182.8,316.9z M81.5,349.9l9.4-23.2l9.5,23.2H81.5z"/>
	</g>
</g>
<g>
	<g>
		<polygon fill="#FFFFFF" points="262.8,329 262.8,316.9 216.3,316.9 216.3,375 262.8,375 262.8,363 230.2,363 230.2,351.4 
			262,351.4 262,339.5 230.2,339.5 230.2,329 		"/>
	</g>
</g>
<g>
	<g>
		<path fill="#FFFFFF" d="M551.8,444.4c-3.2-3.2-8.4-4.5-15.9-4.6l-7.5-0.2c-2.4,0-3.9-0.2-5.4-0.7c-1.7-0.7-3-2.1-3-4.3
			c0-1.8,0.6-3.2,2.1-4.2c1.4-0.9,3-1.1,5.6-1.1h25.5v-12.4h-27.9c-14.6,0-19.9,8.9-19.9,17.3c0,18.4,16.3,17.6,29.3,18
			c2.4,0,3.9,0.4,5,1.3c1,0.8,1.7,2.1,1.7,3.8c0,1.6-0.7,2.9-1.6,3.8c-1.2,1.1-3.1,1.4-5.7,1.4h-26.9v12.5h27.1
			c14,0,21.8-5.8,21.8-18.4C556,450.8,554.5,447.2,551.8,444.4z"/>
	</g>
</g>
</svg>
