<?xml version="1.0" encoding="iso-8859-1"?>
<!-- Generator: Adobe Illustrator 19.0.0, SVG Export Plug-In . SVG Version: 6.00 Build 0)  -->
<svg version="1.1" id="Capa_1" xmlns="http://www.w3.org/2000/svg" xmlns:xlink="http://www.w3.org/1999/xlink" x="0px" y="0px"
	 viewBox="0 0 56.48 56.48" style="enable-background:new 0 0 56.48 56.48;" xml:space="preserve">
<g>
	<g>
		<path d="M55.026,9.939H1.454C0.65,9.939,0,10.59,0,11.393v33.694c0,0.803,0.65,1.455,1.454,1.455h53.572
			c0.804,0,1.454-0.651,1.454-1.454V11.393C56.48,10.59,55.83,9.939,55.026,9.939z M13.894,26.663l-0.168-0.381v0.021
			c0,0.489-0.397,0.886-0.886,0.886h-2.609c-0.36,0-0.683-0.217-0.82-0.549l-0.267-0.648H7.658l-0.271,0.652
			c-0.136,0.33-0.46,0.546-0.816,0.546H5.177c-0.298,0-0.576-0.15-0.74-0.398c-0.163-0.25-0.192-0.564-0.074-0.837l2.296-5.367
			c0.139-0.325,0.46-0.537,0.815-0.537h1.904c0.355,0,0.674,0.211,0.815,0.536l0.481,1.122v-0.771c0-0.489,0.396-0.886,0.886-0.886
			h2.095c0.344,0,0.659,0.202,0.805,0.515l0.839,1.822l0.762-1.796c0.138-0.328,0.46-0.541,0.814-0.541h2.138
			c0.18,0,0.337,0.067,0.478,0.159c0.14-0.092,0.297-0.159,0.478-0.159h4.284c0.166,0,0.313,0.058,0.444,0.137
			c0.133-0.079,0.279-0.137,0.445-0.137h2.95c0.763,0,1.394,0.027,1.997,0.375c0.061,0.037,0.105,0.084,0.16,0.124
			c0.144-0.292,0.44-0.499,0.789-0.499h1.309c0.443,0,0.795,0.33,0.86,0.753c0.574-0.497,1.356-0.753,2.408-0.753h1.241
			c0.197,0,0.382,0.065,0.529,0.176c0.149-0.112,0.334-0.176,0.53-0.176h1.921c0.354,0,0.673,0.212,0.814,0.537l0.471,1.102v-0.753
			c0-0.489,0.397-0.886,0.887-0.886h1.953c0.311,0,0.598,0.162,0.758,0.428l0.61,1.011v-0.554c0-0.489,0.398-0.886,0.888-0.886
			h1.312c0.49,0,0.886,0.397,0.886,0.886v5.367c0,0.489-0.398,0.886-0.886,0.886h-1.816c-0.313,0-0.6-0.162-0.761-0.428
			l-0.787-1.305v0.847c0,0.489-0.398,0.886-0.886,0.886h-2.611c-0.357,0-0.678-0.215-0.818-0.545l-0.271-0.652h-1.478l-0.262,0.643
			c-0.133,0.335-0.459,0.555-0.818,0.555h-1.502c-0.571,0-1.593-0.103-2.322-0.714c-0.083,0.404-0.423,0.714-0.852,0.714h-1.31
			c-0.145,0-0.278-0.044-0.401-0.107c-0.121,0.063-0.252,0.107-0.398,0.107h-1.294c-0.487,0-0.883-0.393-0.887-0.879l-0.005-0.677
			l0.002-0.118c0-0.072,0.002-0.18-0.004-0.271c-0.059-0.004-0.138-0.007-0.249-0.007H27.31v1.066c0,0.489-0.397,0.886-0.886,0.886
			H25.14c-0.166,0-0.311-0.058-0.445-0.137c-0.131,0.079-0.278,0.137-0.444,0.137h-4.284c-0.181,0-0.338-0.068-0.478-0.159
			c-0.141,0.091-0.298,0.159-0.478,0.159h-1.315c-0.49,0-0.886-0.396-0.886-0.885v-0.022l-0.17,0.38
			c-0.142,0.321-0.458,0.528-0.81,0.528h-1.127C14.353,27.192,14.035,26.984,13.894,26.663z M49.291,36.427h-2.498
			c-0.366,0-0.679-0.223-0.815-0.539c-0.487,0.345-1.131,0.539-1.928,0.539h-2.498c-0.141,0-0.267-0.039-0.385-0.096
			c-0.117,0.057-0.244,0.096-0.384,0.096h-4.28c-0.143,0-0.274-0.039-0.392-0.1c-0.119,0.059-0.248,0.1-0.39,0.1h-1.287
			c-0.491,0-0.887-0.397-0.887-0.886v-0.78c0.002-0.076,0.002-0.192-0.004-0.287c-0.059-0.004-0.142-0.008-0.26-0.008h-0.484v1.075
			c0,0.49-0.397,0.886-0.886,0.886h-1.289c-0.491,0-0.887-0.397-0.887-0.886v-1.364c-0.455,0.271-1.083,0.449-1.949,0.449h-0.713
			v0.915c0,0.49-0.397,0.886-0.887,0.886h-2.493c-0.253,0-0.495-0.108-0.663-0.297l-0.929-1.046l-0.979,1.06
			c-0.168,0.181-0.403,0.285-0.65,0.285h-5.081c-0.49,0-0.886-0.398-0.886-0.887v-5.367c0-0.491,0.397-0.887,0.886-0.887h5.158
			c0.253,0,0.492,0.106,0.659,0.294l0.932,1.037l0.971-1.048c0.168-0.181,0.403-0.283,0.65-0.283h4.098
			c0.898,0,1.53,0.199,1.979,0.493c0.145-0.29,0.437-0.493,0.784-0.493h2.962c0.682,0,1.342,0.026,1.961,0.357
			c0.067,0.039,0.11,0.09,0.172,0.132c0.146-0.287,0.435-0.489,0.781-0.489h4.28c0.332,0,0.612,0.191,0.764,0.462
			c0.422-0.286,0.982-0.462,1.688-0.462h2.57c0.387,0,0.705,0.249,0.828,0.592c0.44-0.357,1.041-0.592,1.842-0.592h2.572
			c0.489,0,0.885,0.397,0.885,0.887v1.142c0,0.313-0.16,0.588-0.405,0.746c0.007,0.008,0.017,0.017,0.026,0.026
			c0.44,0.452,0.64,1.01,0.64,1.76C52.19,35.463,51.107,36.429,49.291,36.427z"/>
	</g>
</g>
<g>
	<g>
		<path d="M29.388,23.814c0.334-0.132,0.904-0.575,0.904-1.43c0-0.599-0.244-0.949-0.648-1.189c-0.416-0.24-0.899-0.257-1.554-0.257
			h-2.95v5.367h1.284v-1.951h1.375c0.462,0,0.748,0.041,0.935,0.229c0.233,0.258,0.202,0.722,0.202,1.045l0.006,0.677h1.294V25.25
			c0-0.479-0.031-0.717-0.213-0.984C29.909,24.109,29.669,23.921,29.388,23.814z M28.616,23.138c-0.178,0.107-0.386,0.11-0.635,0.11
			h-1.559l0.001-1.191h1.58c0.222,0,0.456,0.011,0.608,0.097c0.166,0.078,0.269,0.244,0.269,0.474
			C28.88,22.862,28.781,23.051,28.616,23.138z"/>
	</g>
</g>
<g>
	<g>
		<rect x="31.04" y="20.939" width="1.309" height="5.367"/>
	</g>
</g>
<g>
	<g>
		<path d="M46.217,20.939v3.738l-2.256-3.738h-1.953v5.076l-2.172-5.076h-1.921l-1.812,4.22h-0.575
			c-0.335,0-0.697-0.064-0.894-0.277c-0.241-0.27-0.353-0.685-0.353-1.259c0-0.564,0.149-0.99,0.368-1.216
			c0.254-0.248,0.517-0.318,0.988-0.318h1.215v-1.15h-1.241c-0.884,0-1.535,0.197-1.948,0.625c-0.55,0.575-0.691,1.303-0.691,2.099
			c0,0.975,0.236,1.593,0.688,2.049c0.446,0.455,1.235,0.593,1.86,0.594h1.502l0.482-1.197h2.664l0.5,1.197h2.611v-4.028
			l2.434,4.028h1.816v-5.367H46.217z M37.963,23.989l0.881-2.139l0.889,2.139H37.963z"/>
	</g>
</g>
<g>
	<g>
		<path d="M35.64,22.974c-0.302-0.001-0.333,0.031-0.37,0.066c-0.012,0.017-0.102,0.21-0.102,0.582c0,0.368,0.059,0.545,0.102,0.625
			c0.045,0.012,0.128,0.026,0.252,0.026l0.556-1.299H35.64z"/>
	</g>
</g>
<g>
	<g>
		<polygon points="40.782,31.284 40.782,30.174 36.502,30.174 36.502,35.542 40.782,35.542 40.782,34.429 37.778,34.422 
			37.778,33.356 40.708,33.356 40.708,32.26 37.778,32.26 37.778,31.284 		"/>
	</g>
</g>
<g>
	<g>
		<path d="M27.861,30.176h-4.098l-1.632,1.758l-1.58-1.758h-5.158v5.367h5.081l1.642-1.777l1.58,1.777h2.493v-1.8h1.6
			c1.121,0,2.233-0.308,2.233-1.799C30.022,30.458,28.879,30.174,27.861,30.176z M19.825,34.426h-3.152v-1.068h2.815v-1.096h-2.815
			v-0.976h3.215l1.403,1.563L19.825,34.426z M24.911,35.055l-1.97-2.188l1.97-2.116V35.055z M27.845,32.651h-1.656v-1.367h1.672
			c0.464,0,0.784,0.189,0.784,0.659C28.645,32.408,28.339,32.653,27.845,32.651z"/>
	</g>
</g>
<g>
	<g>
		<path d="M34.881,33.047c0.336-0.134,0.909-0.57,0.911-1.429c0-0.612-0.255-0.948-0.658-1.192
			c-0.424-0.225-0.896-0.252-1.545-0.252h-2.961v5.367h1.288v-1.96h1.37c0.468,0,0.753,0.046,0.941,0.238
			c0.238,0.25,0.207,0.728,0.207,1.051v0.671h1.287v-1.064c-0.004-0.473-0.03-0.717-0.213-0.979
			C35.4,33.343,35.165,33.151,34.881,33.047z M34.108,32.38c-0.172,0.102-0.385,0.111-0.635,0.111h-1.559v-1.206h1.58
			c0.226,0,0.456,0.005,0.612,0.097c0.166,0.087,0.265,0.254,0.265,0.483C34.371,32.094,34.272,32.281,34.108,32.38z"/>
	</g>
</g>
<g>
	<g>
		<path d="M45.684,32.708c-0.295-0.292-0.773-0.412-1.469-0.428l-0.689-0.02c-0.219,0-0.363-0.014-0.5-0.061
			c-0.161-0.061-0.28-0.197-0.28-0.4c0-0.17,0.052-0.299,0.194-0.387c0.128-0.087,0.279-0.097,0.514-0.097h2.352v-1.142h-2.57
			c-1.346,0-1.834,0.818-1.834,1.598c0,1.697,1.503,1.621,2.701,1.66c0.225,0,0.359,0.037,0.457,0.119
			c0.09,0.076,0.156,0.198,0.156,0.355c0,0.146-0.062,0.268-0.15,0.35c-0.108,0.102-0.281,0.133-0.523,0.133h-2.488v1.151h2.498
			c1.293,0,2.016-0.539,2.016-1.694C46.069,33.294,45.934,32.966,45.684,32.708z"/>
	</g>
</g>
<g>
	<g>
		<path d="M16.874,20.937l-1.541,3.641l-1.679-3.641H11.56v5.082l-2.183-5.082H7.473l-2.297,5.367h1.393l0.498-1.197h2.67
			l0.493,1.197h2.61v-4.207l1.863,4.206l1.129,0.001l1.86-4.203l0.005,4.203h1.315v-5.367H16.874z M7.524,23.989l0.872-2.139
			l0.877,2.139H7.524z"/>
	</g>
</g>
<g>
	<g>
		<polygon points="24.25,22.055 24.25,20.937 19.966,20.937 19.966,26.305 24.25,26.305 24.25,25.195 21.248,25.195 21.248,24.122 
			24.179,24.122 24.179,23.023 21.248,23.023 21.248,22.055 		"/>
	</g>
</g>
<g>
	<g>
		<path d="M50.924,32.708c-0.293-0.292-0.772-0.412-1.468-0.428l-0.69-0.02c-0.217,0-0.362-0.014-0.5-0.061
			c-0.159-0.061-0.279-0.197-0.279-0.4c0-0.17,0.052-0.299,0.193-0.387c0.129-0.087,0.281-0.097,0.515-0.097h2.353v-1.142h-2.572
			c-1.344,0-1.834,0.818-1.834,1.598c0,1.697,1.504,1.621,2.703,1.66c0.224,0,0.357,0.037,0.457,0.119
			c0.088,0.076,0.155,0.198,0.155,0.355c0,0.146-0.063,0.268-0.149,0.35c-0.109,0.102-0.282,0.133-0.524,0.133h-2.487v1.151h2.498
			c1.293,0,2.014-0.539,2.014-1.694C51.309,33.294,51.176,32.966,50.924,32.708z"/>
	</g>
</g>
<g>
</g>
<g>
</g>
<g>
</g>
<g>
</g>
<g>
</g>
<g>
</g>
<g>
</g>
<g>
</g>
<g>
</g>
<g>
</g>
<g>
</g>
<g>
</g>
<g>
</g>
<g>
</g>
<g>
</g>
</svg>
