<?xml version="1.0" encoding="utf-8"?>
<!-- Generator: Adobe Illustrator 17.1.0, SVG Export Plug-In . SVG Version: 6.00 Build 0)  -->
<!DOCTYPE svg PUBLIC "-//W3C//DTD SVG 1.1//EN" "http://www.w3.org/Graphics/SVG/1.1/DTD/svg11.dtd">
<svg version="1.1" xmlns="http://www.w3.org/2000/svg" xmlns:xlink="http://www.w3.org/1999/xlink" x="0px" y="0px"
	 viewBox="0 0 612 792" enable-background="new 0 0 612 792" xml:space="preserve">
<g id="Layer_2">
</g>
<g id="Capa_1">
	<path fill="#FFFFFF" d="M430.4,214.4c-43.4,0-82.9,14.8-114.5,40.5c23.7,22.7,42.4,51.3,51.3,83.9h-14.8
		c-9.9-28.6-25.7-54.3-47.4-75c-21.7,20.7-37.5,46.4-47.4,75h-14.8c9.9-32.6,27.6-61.2,51.3-83.9c-31.6-25.7-70.1-40.5-113.5-40.5
		C80.9,214.4,0,296.3,0,396s80.9,181.6,181.6,181.6c43.4,0,82.9-15.8,113.5-40.5c-23.7-22.7-41.5-51.3-51.3-83.9h14.8
		c9.9,28.6,25.7,54.3,47.4,75c21.7-20.7,38.5-46.4,47.4-75h14.8c-9.9,32.6-27.6,61.2-51.3,83.9c31.6,25.7,71.1,40.5,114.5,40.5
		c99.7,0,180.6-81.9,180.6-181.6S531.1,214.4,430.4,214.4z M81.9,438.4l10.9-57.3l-25.7,57.3H50.3l-4.9-58.2l-11.8,58.2H15.8
		l15.8-80.9h28.6l3.9,49.4l21.7-49.4h30.6l-15.8,80.9H81.9z M161.9,439.4h-16.8l-2-3.9c-3,2-5.9,3.9-14.8,3.9s-20.7-6.9-18.8-20.7
		c4.9-28.6,37.5-23.7,42.4-23.7c3-9.9-4.9-8.9-10.9-8.9s-17.8,2-22.7,2l3-14.8c11.8-2,17.8-2,21.7-1c30.6,0,27.6,21.7,25.7,30.6
		L161.9,439.4z M221.1,418.7c-3,19.7-24.7,18.8-29.6,18.8c-6.9,0-12.8,0-21.7-2l3-13.8c8.9,3,20.7,2,23.7,2c5.9,0,6.9-7.9,2-9.9
		c-3.9-2-7.9-4.9-14.8-7.9c-3.9-2-8.9-6.9-5.9-19.7c3-15.8,24.7-15.8,27.6-15.8c2,0,8.9,0,17.8,3l-3.9,13.8c-4.9-1-13.8-1-16.8-2
		c-6.9,2-3.9,7.9,0,9.9c3.9,1,8.9,4.9,12.8,6.9C218.1,404.9,223.1,408.8,221.1,418.7z M251.7,435.5c-3.9,3-8.9,3-13.8,3
		c-3.9,0-17.8-3-14.8-20.7l13.8-63.2h17.8l-3.9,17.8h9.9l-3,13.8h-8.9l-4.9,26.7c-1,4.9,0,9.9,9.9,7.9L251.7,435.5z M315.9,408.8
		h-38.5c-2,14.8,9.9,14.8,16.8,14.8c7.9,0,17.8-1,20.7-2l-3,13.8c-4.9,2-15.8,3-23.7,3c-31.6,0-31.6-29.6-30.6-33.6
		c0-3.9,3.9-33.6,33.6-33.6C322.8,371.3,317.8,398,315.9,408.8z M409.6,417.7l4.9,16.8c-5.9,3-11.8,3.9-21.7,3.9
		c-18.8,0-39.5-16.8-30.6-51.3c6.9-24.7,28.6-34.5,41.5-33.6c14.8,1,20.7,5.9,24.7,10.9l-11.8,11.8c-4.9-3-7.9-3-13.8-3
		c-5.9,0-19.7,5.9-21.7,21.7C378.1,414.8,390.9,423.6,409.6,417.7z M476.8,402.9l-6.9,36.5h-16.8l-2-3.9c-3,2-5.9,3.9-14.8,3.9
		c-8.9,0-20.7-6.9-18.8-20.7c4.9-28.6,37.5-23.7,42.4-23.7c2-9.9-4.9-8.9-10.9-8.9s-17.8,2-22.7,2l3-14.8c11.8-2,18.8-2,21.7-1
		C481.7,372.3,478.7,394,476.8,402.9z M503.4,407.8l-5.9,30.6h-18.8l12.8-67.1h15.8l2,6.9c3-3,7.9-6.9,17.8-6.9l-4.9,17.8
		C517.2,389.1,509.3,388.1,503.4,407.8z M559.7,438.4l-2-4.9c-3.9,2-9.9,4.9-15.8,4.9c-12.8,0-24.7-17.8-18.8-38.5
		c8.9-30.6,24.7-28.6,34.5-28.6c7.9,0,9.9,4.9,13.8,7.9l4.9-25.7h18.8l-15.8,84.9H559.7z"/>
	<g>
		<path fill="#FFFFFF" d="M277.4,396h22.7c1-6.9-1-11.8-7.9-11.8C284.3,384.2,279.3,388.1,277.4,396"/>
		<path fill="#FFFFFF" d="M149.1,408.8c-3,0-9.9-2-15.8,2c-5.9,3.9-7.9,10.9-1,12.8c5.9,2,13.8-2,15.8-7.9L149.1,408.8"/>
		<path fill="#FFFFFF" d="M565.6,406.9c2-5.9,1-13.8-1-16.8c-5.9-7.9-18.8-2-22.7,12.8c-3,9.9,3,16.8,8.9,16.8
			C557.7,419.7,561.7,414.8,565.6,406.9"/>
		<path fill="#FFFFFF" d="M458,408.8c-3,0-9.9-2-15.8,2s-7.9,10.9-1,12.8c5.9,2,14.8-2,15.8-7.9L458,408.8"/>
	</g>
	<path fill="#FFFFFF" d="M315.9,438.4l12.8-66.1h15.8l2,6.9c3-3,7.9-6.9,17.8-6.9l-4.9,17.8c-3.9,0-12.8-1-18.8,18.8l-5.9,30.6
		h-18.8"/>
</g>
</svg>
