<?xml version="1.0" encoding="utf-8"?>
<!-- Generator: Adobe Illustrator 17.1.0, SVG Export Plug-In . SVG Version: 6.00 Build 0)  -->
<!DOCTYPE svg PUBLIC "-//W3C//DTD SVG 1.1//EN" "http://www.w3.org/Graphics/SVG/1.1/DTD/svg11.dtd">
<svg version="1.1" id="Capa_1" xmlns="http://www.w3.org/2000/svg" xmlns:xlink="http://www.w3.org/1999/xlink" x="0px" y="0px"
	 viewBox="0 0 612 792" enable-background="new 0 0 612 792" xml:space="preserve">
<g>
	<g>
		<path fill="#FFFFFF" d="M109.7,340.1c-2-4-5.2-7.3-9.1-9.8c-4.1-2.5-8.9-4.3-14.5-5.3c-5.6-1-12.1-1.5-19.7-1.6l-34.8,0
			c-3.6,0-7.2,2.9-8,6.4l-23.4,102c-0.8,3.4,1.4,6.3,5,6.3h16.7c3.6,0,7.2-2.8,8-6.3l5.7-24.8c0.8-3.4,4.3-6.3,8-6.3h4.8
			c20.4,0,36.2-4.2,47.5-12.5c11.4-8.4,17-19.4,17-33.1C112.9,349.2,111.9,344.2,109.7,340.1z M73.7,373.5c-5,3.7-12,5.5-21.1,5.5
			h-4.1c-3.6,0-5.9-2.9-5.1-6.4l5-21.7c0.7-3.5,4.4-6.3,7.9-6.3l5.5,0c6.4,0,11.2,1.1,14.5,3.2c3.2,2.1,4.8,5.5,4.8,9.9
			C81.3,364.6,78.8,369.8,73.7,373.5z"/>
	</g>
</g>
<g>
	<g>
		<polygon fill="#FFFFFF" points="584.9,331.4 583.8,331.8 582.4,332 580.7,331.7 579.9,330.8 579.5,329.5 579.4,327.5 579.4,320.1 
			585,320.1 585,317.8 579.4,317.8 579.4,313.2 576.7,313.2 576.7,317.8 574.8,317.8 574.8,320.1 576.7,320.1 576.7,328.7 578,333 
			581.7,334.3 583.3,334.2 585,333.9 585,331.4 		"/>
	</g>
</g>
<g>
	<g>
		<polygon fill="#FFFFFF" points="610.7,319 606.7,317.3 603.8,317.9 600.8,319.9 599.1,318 596.3,317.3 593.6,317.9 591,319.6 
			591,317.8 588.3,317.8 588.3,334 591,334 591,321.9 593.3,320.5 595.5,319.9 597.4,320.2 598.3,321.2 598.7,322.7 598.8,324.7 
			598.8,334 601.5,334 601.5,323.6 601.5,322.8 601.4,322 603.7,320.5 606,319.9 607.8,320.3 608.8,321.2 609.1,322.8 609.3,324.8 
			609.3,334 612,334 612,323.5 		"/>
	</g>
</g>
<g>
	<g>
		<path fill="#FFFFFF" d="M190.1,354.7c-6.3-3.5-16.2-5.3-29.8-5.3c-6.7,0-13.4,0.5-20.2,1.6c-5,0.8-5.5,0.9-8.5,1.6
			c-6.3,1.4-7.3,7.7-7.3,7.7l-2,8.4c-1.2,5.4,1.9,5.1,3.2,4.7c2.8-0.8,4.3-1.7,10-2.9c5.4-1.2,11.1-2.1,15.6-2.1
			c6.7,0,11.8,0.7,15.2,2.1c3.4,1.5,5,4,5,7.6l-0.3,2.4l-2.4,1.5c-9.5,0.6-16.3,1.5-24.6,2.7c-8.1,1.1-15.2,3.1-21.1,5.8
			c-6.3,2.8-11.1,6.5-14.4,11.3c-3.2,4.8-4.8,10.6-4.8,17.4c0,6.4,2.3,11.7,6.8,15.8c4.5,4,10.5,6,17.6,6c4.5,0,8-0.4,10.5-1
			l8.1-2.8l6.8-3.8l6.3-4.2l0.1,0.1l-0.6,2.7l0,0.1v0c-0.7,3.3,1.3,5.9,4.5,6.2l0.1,0.1h0.3h12.8h2.4l0.2-0.1
			c3.3-0.4,6.4-3.1,7.2-6.2l12.2-52.6l0.6-4.3l0.3-4C199.6,363.8,196.4,358.3,190.1,354.7z M163.2,413.9l-2.6,3.4l-6.6,3.4
			c-3.1,1.3-6,1.9-8.7,1.9c-4.1,0-7.3-0.6-9.5-1.8l-3.2-6.3c0-3.4,0.8-6.1,2.4-8.1l7.1-4.8c3-1,6.7-1.9,11-2.5
			c3.8-0.5,11.3-1.3,12.3-1.4l1.2,2C166.4,400.9,164.2,409.8,163.2,413.9z"/>
	</g>
</g>
<g>
	<g>
		<path fill="#FFFFFF" d="M492.8,354.8c-6.3-3.5-16.2-5.3-29.8-5.3c-6.7,0-13.4,0.5-20.2,1.6c-5,0.7-5.5,0.9-8.6,1.5
			c-6.3,1.4-7.3,7.7-7.3,7.7l-2,8.4c-1.1,5.4,1.9,5.1,3.3,4.7c2.8-0.8,4.3-1.6,9.9-3c5.4-1.2,11.1-2.1,15.6-2.1
			c6.6,0,11.7,0.7,15.1,2.1c3.4,1.5,5,4,5,7.6l-0.3,2.3l-2.4,1.5c-9.6,0.6-16.4,1.4-24.6,2.6c-8.1,1.1-15.2,3.1-21.1,5.8
			c-6.3,2.8-11.1,6.6-14.4,11.3c-3.2,4.8-4.8,10.6-4.8,17.4c0,6.5,2.3,11.8,6.8,15.9c4.5,4,10.4,6,17.5,6c4.5,0,8-0.3,10.5-1l8-2.7
			l6.9-3.8l6.2-4.2l0.1,0.1l-0.6,2.7l-0.1,0l0,0c-0.8,3.3,1.2,5.9,4.4,6.2l0,0.1h0.3c2.1,0,9.4,0,12.8,0h2.4l0.3-0.1
			c3.3-0.4,6.4-3.1,7.1-6.3l12.2-52.5l0.6-4.3l0.4-4C502.4,363.8,499.2,358.3,492.8,354.8z M466,414l-2.7,3.5l-6.5,3.4
			c-3.1,1.2-6,1.9-8.7,1.9c-4.2,0-7.4-0.6-9.5-1.8l-3.3-6.2c0-3.4,0.8-6.1,2.4-8.2c1.6-2,4.1-3.6,7.1-4.8c3-1,6.7-1.8,11-2.5
			c3.8-0.5,11.3-1.4,12.3-1.4l1.2,2C469.2,401,467,409.9,466,414z"/>
	</g>
</g>
<g>
	<g>
		<path fill="#FFFFFF" d="M412.4,340.5c-2.1-4-5.2-7.3-9.2-9.9c-4.1-2.5-8.9-4.3-14.5-5.3c-5.5-1-12.1-1.5-19.6-1.5l-34.9,0
			c-3.6,0.1-7.1,2.9-8,6.3l-23.4,102.1c-0.8,3.5,1.5,6.3,5,6.3l16.7,0c3.5,0,7.2-2.8,8-6.3l5.6-24.8c0.8-3.4,4.4-6.3,8-6.3h4.8
			c20.4,0,36.2-4.2,47.6-12.5c11.3-8.4,16.9-19.4,16.9-33.1C415.6,349.5,414.5,344.5,412.4,340.5z M376.5,373.9
			c-5,3.6-12,5.5-21,5.5h-4.2c-3.6,0-5.9-2.9-5.1-6.3l5.1-21.6c0.7-3.5,4.4-6.4,8-6.3l5.4,0c6.4,0,11.2,1.1,14.5,3.2
			c3.3,2.1,4.8,5.5,4.8,9.9C384,365,381.5,370.2,376.5,373.9z"/>
	</g>
</g>
<g>
	<g>
		<path fill="#FFFFFF" d="M555.3,331c0.8-3.5-1.4-6.3-5-6.3h-14.9c-3.1,0-5.8,2.3-7.2,5.1l-0.8,1.3l-0.8,3.3l-20.9,94.9l-0.7,2.9
			l0,0.1c-0.7,3.1,1.2,5.5,4.2,5.9l0.3,0.4h15.5c3,0,5.9-2.3,7.2-5.1l0.8-1.2L555.3,331L555.3,331z"/>
	</g>
</g>
<g>
	<g>
		<path fill="#FFFFFF" d="M303.3,350.7c-3.9,0-20,0-20,0c-3.6,0-8.2,2.9-10.5,6.4c0,0-23.9,41-26.2,45.1l-2.8,0l-7.4-44.8
			c-0.8-3.5-4.5-6.5-9.1-6.5l-14.9,0c-3.6,0-5.8,2.9-5,6.4c0,0,11.3,64.5,13.6,79.7c1.1,8.4-0.1,9.9-0.1,9.9l-14.8,25.7
			c-2.2,3.5-1,6.3,2.6,6.3l17.3,0c3.6,0,8.3-2.8,10.5-6.3l66.4-112.3C302.9,360.2,309.3,350.6,303.3,350.7z"/>
	</g>
</g>
</svg>
