<?xml version="1.0" encoding="utf-8"?>
<!-- Generator: Adobe Illustrator 17.1.0, SVG Export Plug-In . SVG Version: 6.00 Build 0)  -->
<!DOCTYPE svg PUBLIC "-//W3C//DTD SVG 1.1//EN" "http://www.w3.org/Graphics/SVG/1.1/DTD/svg11.dtd">
<svg version="1.1" id="Layer_6" xmlns="http://www.w3.org/2000/svg" xmlns:xlink="http://www.w3.org/1999/xlink" x="0px" y="0px"
	 viewBox="0 0 139 222" enable-background="new 0 0 139 222" xml:space="preserve">
<g>
	<g>
		<rect x="67.1" y="142" width="5.7" height="62.6"/>
		<path d="M100,204.6c0,2-1.9,3.6-4.1,3.6H44.6c-2.3,0-4.1-1.6-4.1-3.6l0,0c0-2,1.9-3.6,4.1-3.6h51.2C98.1,201,100,202.6,100,204.6
			L100,204.6z"/>
	</g>
	<g>
		<path fill="#C20C61" d="M42,74.3c0,0,0.4,2.5-0.2,6c6.3,1.1,29,4.2,56.8-0.1c-0.5-3.2-0.3-8,1.9-14.4c0,0,9-15.2-1-48
			c0,0-0.3-3.4-1.7-3.9c0,0-2.3-0.7-1.7,3.3c0,0,2.7,18.5-8.8,23.3c0,0-13.4,7.5-31.8,1.5c0,0-14.7-4.3-11.3-23.3
			c0,0,1.2-5.3-0.5-4.7c0,0-2.7-1.7-3.7,8.3c0,0-6.3,20.7-2.7,34.7C37.3,57,39.3,65.3,42,74.3z"/>
		<path fill="#C20C61" d="M100,85c0,0-0.1-0.1-0.2-0.3c-5.2,0.8-26.6,3.6-59.3,0c-0.2,0.5-0.4,1-0.6,1.5c0,0-14.3,30.8-19.9,70.5
			c0,0-2,15.7-0.7,20.2c0,0,15.5,10,81.7,4.7c0,0,14.2-1.7,20-4.5C121,177,120.7,134.2,100,85z"/>
	</g>
	<g>
		<path fill="#FFFFFF" d="M87.4,118.8c-1,1-2.5,1-3.5,0l0,0c-1-1-1-2.5,0-3.5L100,99.2c1-1,2.5-1,3.5,0l0,0c1,1,1,2.5,0,3.5
			L87.4,118.8z"/>
		<path fill="#FFFFFF" d="M83.9,102.6c-1-1-1-2.5,0-3.5l0,0c1-1,2.5-1,3.5,0l16.1,16.1c1,1,1,2.5,0,3.5l0,0c-1,1-2.5,1-3.5,0
			L83.9,102.6z"/>
	</g>
</g>
</svg>
