<?xml version="1.0" encoding="utf-8"?>
<!-- Generator: Adobe Illustrator 17.1.0, SVG Export Plug-In . SVG Version: 6.00 Build 0)  -->
<!DOCTYPE svg PUBLIC "-//W3C//DTD SVG 1.1//EN" "http://www.w3.org/Graphics/SVG/1.1/DTD/svg11.dtd">
<svg version="1.1" id="Layer_2" xmlns="http://www.w3.org/2000/svg" xmlns:xlink="http://www.w3.org/1999/xlink" x="0px" y="0px"
	 viewBox="7 327.2 617.8 464.8" enable-background="new 7 327.2 617.8 464.8" xml:space="preserve">
<g>
	<g id="Layer_x0020_1">
		<path fill="#EE4290" d="M79.1,472.7c45.3-62.3,105.7-111.4,185.1-145.4l9.4,26.5c-52.9,26.5-94.4,58.5-128.4,98.2
			s-51.1,83.2-54.8,128.5c30.2-32.1,64.2-49.1,105.7-49.1c32.1,0,54.7,7.6,71.8,24.5c17.1,17,24.5,37.8,24.5,68
			c0,47.2-17,85-49.1,119c-34,34-71.8,49.1-119,49.1c-73.6,0-111.4-39.6-111.4-120.8C11.1,601.2,33.7,535.1,79.1,472.7L79.1,472.7z"
			/>
	</g>
	<path fill="#EE4290" d="M411.4,472.7c45.3-62.3,105.7-111.4,185.1-145.4l9.4,26.5c-52.9,26.5-94.4,58.5-128.4,98.2
		s-52.9,83.2-54.7,128.5c32.1-32.1,68-49.1,105.7-49.1c32.1,0,54.7,7.6,71.8,24.5c17,17,24.5,37.8,24.5,66.1v1.8
		c0,47.2-17,85-49.1,119c-34,34-71.8,49.1-119,49.1c-73.6,0-111.4-39.6-111.4-120.8C343.4,601.2,366.1,535.1,411.4,472.7z"/>
</g>
</svg>
