<?xml version="1.0" encoding="utf-8"?>
<!-- Generator: Adobe Illustrator 16.0.0, SVG Export Plug-In . SVG Version: 6.00 Build 0)  -->
<!DOCTYPE svg PUBLIC "-//W3C//DTD SVG 1.1//EN" "http://www.w3.org/Graphics/SVG/1.1/DTD/svg11.dtd">
<svg version="1.1" id="Layer_1" xmlns="http://www.w3.org/2000/svg" xmlns:xlink="http://www.w3.org/1999/xlink" x="0px" y="0px"
	 width="612px" height="274.486px" viewBox="0 265.097 612 274.486" enable-background="new 0 265.097 612 274.486"
	 xml:space="preserve">
<g>
	<path fill="#FFFFFF" d="M230.771,439.781c-20.342,6.547-41.501,10.171-63.363,10.755c-1.052,0-2.104,0-3.04,0s-1.871,0-2.806,0
		c-6.897,0-14.379-0.352-22.212-1.169c-7.833-0.818-15.782-1.987-23.731-3.741c-21.277-4.442-40.8-12.859-58.57-25.018
		c-17.77-12.274-26.654-29.928-26.654-53.075l-0.234-61.843c0-1.987-0.702-3.741-1.987-5.144c-1.403-1.403-3.04-2.104-5.027-2.104
		h-0.234h-3.741v-9.586h20.692v78.56c0,8.768,1.871,16.834,5.611,24.316c3.741,7.482,8.885,14.029,15.315,19.523
		c6.546-5.611,11.69-12.158,15.314-19.523s5.377-15.432,5.377-24.316v-78.443h20.458v9.586h-3.741c-1.987,0-3.741,0.701-5.144,2.104
		c-1.403,1.403-2.104,3.157-2.104,5.144v61.843c0,9.82-1.871,18.822-5.729,27.239c-3.858,8.417-9.353,15.899-16.718,22.329
		c8.885,5.962,18.588,10.755,29.227,14.263c10.638,3.508,21.511,5.963,32.383,7.481c5.261,0.701,10.521,1.286,15.782,1.637
		c5.261,0.352,10.405,0.584,15.432,0.584c0.584,0,1.169,0,1.753,0s1.169,0,1.753,0c21.043-0.351,41.385-3.624,61.142-9.702
		c19.64-6.079,35.422-15.08,47.347-27.006l6.897,6.664C267.713,423.531,251.113,433.117,230.771,439.781z"/>
	<path fill="#FFFFFF" d="M106.501,412.893v-9.586h3.858c1.987,0,3.624-0.7,5.027-2.104c1.403-1.402,2.104-3.039,2.221-4.91v-64.648
		h-11.34v-9.586h11.34v-16.483c-0.117-1.987-0.818-3.624-2.221-5.027c-1.403-1.403-3.04-1.987-5.027-1.987h-3.858v-9.586h60.44
		v20.458h-9.586v-3.741v-0.234c-0.117-1.987-0.818-3.624-2.221-5.027c-1.403-1.403-3.04-1.987-5.027-1.987h-22.913v23.615h22.212
		v9.586h-22.212v71.663h23.147c1.871-0.116,3.507-0.817,4.91-2.222c1.403-1.402,2.104-2.922,2.221-4.909v-0.234v-3.741h9.586v20.691
		h-60.557V412.893z"/>
	<path fill="#FFFFFF" d="M227.966,401.67c-7.482,7.482-16.484,11.223-27.005,11.223c-3.39,0-6.781-0.468-10.171-1.401
		c-3.39-0.937-6.546-2.223-9.469-3.858v5.261h-9.469v-27.588h9.586v3.156v3.741c0,2.689,1.169,4.91,3.507,6.43
		c2.338,1.636,4.91,2.688,7.599,3.391c1.636,0.468,3.156,0.817,4.676,0.936c1.52,0.233,2.689,0.233,3.741,0.233
		c7.833,0,14.613-2.807,20.341-8.534c5.612-5.612,8.534-12.392,8.534-20.342c0-7.365-2.338-13.561-7.131-18.354
		s-10.054-9.235-15.782-13.21c-0.585-0.351-1.169-0.701-1.754-1.169c-0.585-0.468-1.169-0.818-1.753-1.169
		c-0.818-0.468-1.637-0.936-2.338-1.52c-0.818-0.584-1.52-1.052-2.221-1.52c-5.377-3.741-10.054-7.716-13.912-11.69
		c-3.858-4.092-5.845-9.119-5.845-15.315c0-6.196,2.221-11.457,6.664-15.548c4.443-4.091,9.586-6.079,15.198-5.962
		c1.286,0,2.572,0.117,3.858,0.351c1.286,0.234,2.572,0.584,3.741,1.052v-1.753h9.586v21.043h-9.586c0-0.584,0-1.169,0-1.871
		c0-0.701,0-1.286,0-1.987c0-2.338-0.818-4.092-2.338-5.377c-1.637-1.286-3.507-1.871-5.729-1.871c-0.117,0-0.234,0-0.351,0
		c-0.117,0-0.234,0-0.351,0c-2.806,0.234-5.378,1.403-7.716,3.624c-2.338,2.221-3.39,5.027-3.39,8.417
		c0,3.624,1.403,6.897,4.325,9.937c2.923,2.922,6.313,5.845,10.288,8.651c0.936,0.584,1.871,1.169,2.689,1.753
		c0.936,0.584,1.754,1.169,2.689,1.753c0.584,0.351,1.169,0.702,1.753,1.169s1.169,0.818,1.754,1.169
		c6.78,4.559,13.093,9.937,18.705,15.899c5.611,5.962,8.534,13.912,8.534,23.615C239.306,385.187,235.448,394.188,227.966,401.67z"
		/>
	<path fill="#FFFFFF" d="M269.116,309.432v-3.741c0-1.987-0.701-3.741-2.104-5.144c-1.403-1.403-3.157-2.104-5.144-2.104h-4.208
		v97.616c0,1.987,0.701,3.741,2.104,5.145c1.403,1.403,3.157,2.104,5.144,2.104h3.858v9.586h-31.798v-9.586h3.741
		c1.987,0,3.741-0.7,5.144-2.104c1.403-1.402,2.104-3.156,2.104-5.145v-97.616h-4.092c-1.987,0-3.741,0.702-5.144,2.104
		c-1.403,1.402-2.104,3.156-2.104,5.144v3.741h-9.586v-20.458h51.555v20.458H269.116z"/>
	<path fill="#FFFFFF" d="M283.028,412.893v-9.586h3.857c1.988,0,3.741-0.7,5.144-2.104c1.403-1.402,2.104-3.156,2.104-5.145V305.69
		c0-1.987-0.702-3.741-2.104-5.144c-1.402-1.403-3.156-2.104-5.144-2.104h-3.857v-9.586h31.798v9.586h-3.857
		c-1.986,0-3.74,0.702-5.144,2.104c-1.403,1.402-2.104,3.156-2.104,5.144v90.368c0,1.987,0.702,3.741,2.104,5.145
		c1.403,1.403,3.157,2.104,5.144,2.104h3.857v9.586L283.028,412.893L283.028,412.893z"/>
	<path fill="#FFFFFF" d="M380.995,394.422c-11.925,12.041-26.421,18.237-43.372,18.471h-16.718v-9.586h3.741h0.232
		c1.987,0,3.741-0.7,5.146-2.222c1.401-1.52,2.104-3.156,2.104-5.026V305.69c0-1.987-0.701-3.741-2.104-5.144
		c-1.403-1.403-3.157-2.104-5.146-2.104h-3.856v-9.586h16.718c16.951,0.117,31.446,6.196,43.371,18.354s17.887,26.654,17.887,43.605
		C398.882,367.884,392.919,382.38,380.995,394.422z M375.5,315.394c-9.235-10.054-20.575-15.548-34.02-16.717V403.19
		c13.443-1.169,24.783-6.78,34.02-16.717c9.235-10.054,13.912-21.861,13.912-35.539C389.295,337.255,384.735,325.448,375.5,315.394z
		"/>
	<path fill="#FFFFFF" d="M509.591,394.656c-12.158,12.158-26.771,18.236-43.956,18.236c-17.067,0-31.682-6.078-43.84-18.236
		s-18.237-26.771-18.237-43.84c0-17.185,6.079-31.798,18.237-43.839c12.158-12.042,26.771-18.12,43.84-18.12
		c17.186,0,31.798,6.079,43.956,18.12s18.237,26.654,18.237,43.839C527.711,368.001,521.749,382.614,509.591,394.656z
		 M502.693,313.874c-10.288-10.288-22.562-15.314-37.06-15.314c-14.38,0-26.655,5.144-36.941,15.314
		c-10.288,10.288-15.433,22.562-15.433,37.059c0,14.379,5.145,26.654,15.433,36.942c10.286,10.288,22.68,15.432,36.941,15.432
		c14.496,0,26.889-5.144,37.06-15.432c10.288-10.288,15.313-22.68,15.313-36.942C518.008,336.437,512.981,324.045,502.693,313.874z"
		/>
	<path fill="#FFFFFF" d="M582.656,401.67c-7.481,7.482-16.483,11.223-27.005,11.223c-3.391,0-6.78-0.468-10.171-1.401
		c-3.391-0.937-6.548-2.223-9.47-3.858v5.261h-9.587v-27.588h9.587v3.156v3.741c0,2.689,1.169,4.91,3.507,6.43
		c2.339,1.636,4.91,2.688,7.6,3.391c1.637,0.468,3.156,0.817,4.677,0.936c1.521,0.233,2.688,0.233,3.74,0.233
		c7.833,0,14.612-2.807,20.342-8.534c5.611-5.612,8.534-12.392,8.534-20.342c0-7.365-2.338-13.561-7.131-18.354
		s-10.055-9.235-15.782-13.21c-0.585-0.351-1.169-0.701-1.754-1.169c-0.585-0.468-1.169-0.818-1.754-1.169
		c-0.818-0.468-1.638-0.936-2.338-1.52c-0.818-0.584-1.521-1.052-2.222-1.52c-5.378-3.741-10.055-7.716-13.912-11.69
		c-3.856-4.092-5.846-9.119-5.846-15.315c0-6.196,2.222-11.457,6.664-15.548c4.442-4.091,9.586-6.079,15.197-5.962
		c1.286,0,2.572,0.117,3.857,0.351c1.286,0.234,2.572,0.584,3.741,1.052v-1.753h9.586v21.043h-9.586c0-0.584,0-1.169,0-1.871
		c0-0.701,0-1.286,0-1.987c0-2.338-0.817-4.092-2.339-5.377c-1.637-1.286-3.507-1.871-5.729-1.871c-0.116,0-0.233,0-0.351,0
		s-0.234,0-0.352,0c-2.807,0.234-5.377,1.403-7.717,3.624c-2.338,2.221-3.39,5.027-3.39,8.417c0,3.624,1.402,6.897,4.325,9.937
		c2.923,2.922,6.312,5.845,10.288,8.651c0.935,0.584,1.87,1.169,2.688,1.753c0.937,0.584,1.754,1.169,2.688,1.753
		c0.585,0.351,1.17,0.702,1.754,1.169c0.585,0.467,1.169,0.818,1.754,1.169c6.78,4.559,13.093,9.937,18.705,15.899
		c5.611,5.962,8.533,13.912,8.533,23.615C593.996,385.187,590.256,394.188,582.656,401.67z"/>
</g>
<g>
	<path fill="#FFFFFF" d="M142.266,472.883c-0.345-0.758-0.138-1.103,0.689-1.171c4.825-0.414,11.028-3.791,15.646-4.065
		c3.515-0.207,6.892,0.896,8.133,5.581c1.241,4.618-0.069,8.479-2.412,11.512c-1.999,2.55-5.652,5.996-10.752,8.202
		c1.31,0.619,2.413,1.585,3.309,2.895c1.447,2.137,1.378,6.203-1.585,9.442c-3.033,3.309-8.202,5.721-12.062,6.409
		c-2.619,0.482-4.273,0.413-5.79-0.345c-1.378-0.688-2.619-1.86-3.515-3.171c-1.034-1.516-1.723-2.619-0.138-7.03
		c2.757-7.719,7.996-17.781,13.165-25.501C144.195,475.502,142.748,473.986,142.266,472.883z M146.194,494.938
		c-1.93,0.207-3.309,0-4.273-0.481c-1.861,3.584-3.584,7.237-4.618,10.684c-0.758,2.412,0,3.239,2.206,2.964
		c4.411-0.552,10.339-3.377,13.303-7.029c2.55-3.171,2.55-6.272-3.722-6.617C148.124,494.663,147.159,494.801,146.194,494.938z
		 M164.183,473.849c-1.378-3.585-8.202-0.414-12.958,1.104c0.138,1.517-0.345,3.584-2.068,6.754
		c-1.378,2.551-3.377,5.79-5.376,9.306C157.429,487.84,165.906,478.535,164.183,473.849z"/>
	<path fill="#FFFFFF" d="M205.333,512.032c-4.48,0-6.203-2.757-5.652-6.755c-2.412,3.171-5.927,6.822-9.856,6.479
		c-4.894-0.414-5.031-5.445-3.515-9.994c0.551-1.724,1.447-3.791,2.619-5.928c-1.93,0.896-4.066,1.447-6.203,1.24
		c-1.585,5.79-5.79,12.612-10.683,14.268c-2.55,0.827-6.065,0.552-8.753-3.032c-3.033-4.066-1.999-9.993,1.034-15.508
		c2.619-4.756,6.893-8.616,11.028-8.892c2.068-0.139,3.24,0.481,4.687,2.344c1.654,2.067,3.584,2.48,3.239,7.581
		c0,0.414-0.069,0.827-0.138,1.379c3.929-0.069,7.719-3.309,10.063-7.1c0.689-1.104,1.792-2.619,2.619-3.791
		c0.551-0.758,1.171-0.688,1.723-0.068c1.517,2.274,1.172,5.169-1.309,9.235c-2.481,4.065-4.067,6.824-5.376,10.062
		c-1.378,3.377-1.171,5.789,0.345,5.927c2.688,0.207,6.548-4.479,10.201-10.476c4.273-6.962,6.272-11.718,8.409-14.682
		c0.621-0.896,1.172-1.033,1.723-0.413c1.034,1.239,1.585,4.204-0.069,7.649c-1.516,3.103-4.894,8.134-6.479,11.718
		c-1.792,3.997-1.516,6.823,0.965,6.686c2.826-0.138,6.41-4.687,9.029-9.511c0.345-0.62,0.896-0.689,1.241-0.069
		c0.345,0.62,0.345,2.412-0.621,4.273C213.604,508.586,209.399,512.032,205.333,512.032z M173.834,489.012
		c-1.792,1.517-3.86,3.859-5.376,6.548c-2.895,5.169-3.86,11.441-2.068,13.026s6.065-0.896,9.511-7.168
		c1.103-1.999,1.792-3.86,2.413-5.583C175.971,494.525,173.834,491.837,173.834,489.012z M177.211,489.149
		c-0.207,1.86,0.345,3.584,1.585,4.687c0.551-1.999,0.62-3.722,0.482-4.894C179.003,486.737,177.418,487.22,177.211,489.149z"/>
	<path fill="#FFFFFF" d="M218.017,482.257c-0.689-0.965-0.275-1.447,0.758-1.378c1.93,0.068,3.86-0.069,5.721-0.276
		c2.137-3.79,4.066-7.029,5.238-8.546c0.62-0.896,1.31-0.826,1.654,0c0.758,1.931,0.758,4.204-0.896,7.788
		c2.688-0.068,3.722,1.172,4.273,2.067c0.482,0.827,0.207,1.31-0.827,1.31c-1.516-0.207-3.653,0-5.376,0.275
		c-2.688,4.618-6.617,11.304-9.236,17.094c-2.274,5.031-1.516,9.305,1.378,9.442c3.102,0.138,7.03-4.756,9.581-9.925
		c0.414-0.827,1.172-0.966,1.447,0c0.345,1.103,0,2.343-0.689,3.929c-0.896,1.999-5.445,8.062-10.959,7.856
		c-4.549-0.138-8.202-5.237-4.894-13.165c1.447-3.445,4.342-9.234,7.306-14.681C220.154,484.049,218.569,483.015,218.017,482.257z"
		/>
	<path fill="#FFFFFF" d="M228.769,501.831c1.723-5.031,6.272-13.164,8.822-16.748c0.621-0.827,1.103-1.034,1.654-0.414
		c1.034,1.104,1.585,4.066-0.069,7.513c-1.447,3.033-4.342,7.721-5.79,11.166c-1.654,3.998-1.517,6.687,0.689,6.549
		c3.102-0.139,6.893-4.688,8.96-9.442c0.344-0.62,0.827-0.552,1.103,0c0.551,1.103,0.345,2.55-0.482,4.272
		c-2.068,4.272-6.41,7.169-10.27,7.169C228.149,511.895,226.839,507.483,228.769,501.831z M244.139,483.842
		c-0.896,0.965-2.826,0.759-3.86-1.033c-1.103-1.86-0.758-3.929,0.345-5.101s3.102-0.345,3.998,1.517
		C245.518,481.017,245.035,482.877,244.139,483.842z"/>
	<path fill="#FFFFFF" d="M247.793,511.895c-6.41,0-7.72-8.685-1.999-17.094c5.445-7.926,11.028-11.097,14.474-11.097
		c3.033,0,4.411,2.412,4.205,4.963c1.171-2.068,2.343-3.791,2.963-4.411c0.758-0.759,1.172-0.552,1.723,0.207
		c0.827,1.723,0.758,4.755-1.516,8.822c-4.205,7.513-12.406,21.711-17.852,34.736c-0.344,0.759-0.758,0.827-1.24,0.275
		c-0.965-1.103-1.792-2.412-0.621-6.341c0.827-2.896,2.619-7.306,4.825-11.786C251.239,511.205,249.516,511.895,247.793,511.895z
		 M261.44,487.22c-2.206-0.138-7.237,4.273-11.028,10.338c-3.722,5.929-4.549,12.2-1.861,12.2c2.826,0,6.41-4.343,9.925-10.477
		C262.818,491.699,263.438,487.357,261.44,487.22z"/>
	<path fill="#FFFFFF" d="M271.434,511.757c-4.894-0.345-5.031-5.445-3.515-9.994c1.517-4.549,5.032-11.304,9.512-17.575
		c0.551-0.759,1.241-0.689,1.792-0.068c1.516,2.273,1.171,5.376-1.31,9.305c-2.55,4.066-3.929,6.823-5.376,10.132
		c-1.448,3.377-1.241,5.858,0.344,5.996c2.688,0.207,6.479-4.618,10.201-10.614c4.342-7.029,6.341-11.785,8.546-14.75
		c0.689-0.965,1.172-1.103,1.723-0.412c1.034,1.239,1.585,4.272-0.069,7.72c-1.517,3.102-4.963,8.271-6.548,11.785
		c-1.792,3.929-1.517,6.823,0.965,6.686c2.895-0.138,6.41-4.687,9.098-9.511c0.344-0.62,0.965-0.689,1.24-0.069
		c0.276,0.553,0.345,2.412-0.62,4.343c-1.999,3.859-6.272,7.375-10.338,7.375c-4.48,0-6.272-2.825-5.721-6.823
		C278.946,508.517,275.293,512.032,271.434,511.757z"/>
	<path fill="#FFFFFF" d="M305.138,509.964c5.721,0.276,10.751-5.237,13.715-9.787c0.346-0.551,0.896-0.551,1.172,0.069
		c0.275,0.552,0.068,2.48-1.172,4.272c-2.896,4.204-8.201,7.375-13.508,7.443c-8.753,0.138-11.786-8.478-7.306-17.368
		c4.48-8.892,11.51-12.476,14.957-10.477c1.723,1.033,2.963,2.066,4.066,3.584c1.239,1.654,0.688,5.857-2.206,9.373
		c-3.378,4.136-7.995,5.928-12.82,1.999C299.831,505.415,301.485,509.758,305.138,509.964z M310.859,494.112
		c2.205-2.896,3.722-6.479,2.757-7.237c-1.448-1.172-7.168,2.964-10.408,9.512c-0.207,0.413-0.414,0.827-0.551,1.171
		C306.034,499.694,308.86,496.73,310.859,494.112z"/>
	<path fill="#FFFFFF" d="M367.17,496.524c-5.582,10.27-14.268,18.334-23.641,14.888c-5.652-2.068-7.857-7.237-7.857-12.889
		c0-14.683,12.889-27.434,20.678-30.189c3.997-1.378,7.443-0.62,9.373,1.379C374.27,473.435,372.34,487.013,367.17,496.524z
		 M364.344,471.367c-3.377-1.241-12.13,3.446-18.608,13.509c-6.616,10.271-6.754,21.918-2.067,23.917
		c4.55,1.93,12.683-3.584,18.472-14.198C368.41,483.084,368.135,472.745,364.344,471.367z"/>
	<path fill="#FFFFFF" d="M391.019,483.842c2.274,0.346,4.411,3.724,2.688,7.308c-1.447,3.031-4.825,8.133-6.41,11.717
		c-1.793,3.997-1.379,7.237,1.104,7.099c2.824-0.138,6.202-4.687,8.821-9.511c0.346-0.62,0.827-0.62,1.172-0.069
		c0.482,0.758,0.346,2.345-0.619,4.344c-1.861,3.858-6.203,7.373-10.201,7.373c-5.858,0-7.236-4.271-5.238-10.27
		c2.274-6.754,8.34-14.061,7.1-14.611c-0.688-0.275-4.688,1.654-9.098,6.479c-4.067,4.411-7.1,11.028-10.062,17.507
		c-0.276,0.62-0.689,0.896-1.311,0.275c-1.379-1.378-1.792-3.652-0.688-7.1c1.379-4.343,6.686-13.923,11.026-20.333
		c0.482-0.758,1.035-0.688,1.448,0c1.034,1.725,0.965,4.066,0.206,6.548C384.057,487.288,388.744,483.497,391.019,483.842z"/>
	<path fill="#FFFFFF" d="M402.736,509.826c3.309,0.275,8.133-4.688,10.819-9.993c0.482-0.896,1.241-0.966,1.518,0
		c0.345,1.103,0.068,2.618-0.688,4.272c-0.965,2.067-5.997,7.788-11.511,7.65c-4.756-0.139-7.306-3.446-5.721-10.891
		c2.55-11.992,10.406-24.468,17.438-31.773c1.034-1.104,1.999-1.241,2.964-0.345c1.999,1.792,2.412,4.342,1.586,7.581
		c-2.137,8.478-9.856,16.749-15.99,20.746C400.393,503.83,399.635,509.551,402.736,509.826z M416.797,474.882
		c-0.896-0.551-5.996,7.101-10.752,15.922c-0.621,1.104-1.172,2.205-1.654,3.31C413.833,486.461,417.692,475.434,416.797,474.882z"
		/>
	<path fill="#FFFFFF" d="M412.386,501.831c1.725-5.031,6.272-13.164,8.822-16.748c0.62-0.827,1.103-1.034,1.654-0.414
		c1.033,1.104,1.585,4.066-0.069,7.513c-1.447,3.033-4.342,7.721-5.789,11.166c-1.654,3.998-1.517,6.687,0.689,6.549
		c3.102-0.139,6.893-4.688,8.96-9.442c0.345-0.62,0.826-0.552,1.103,0c0.551,1.103,0.345,2.55-0.481,4.272
		c-2.068,4.272-6.41,7.169-10.271,7.169C411.766,511.895,410.456,507.483,412.386,501.831z M427.756,483.842
		c-0.896,0.965-2.826,0.759-3.858-1.033c-1.104-1.86-0.759-3.929,0.344-5.101c1.104-1.172,3.102-0.345,3.998,1.517
		C429.135,481.017,428.652,482.877,427.756,483.842z"/>
	<path fill="#FFFFFF" d="M447.192,483.842c2.273,0.346,4.41,3.724,2.688,7.308c-1.447,3.031-4.825,8.133-6.41,11.717
		c-1.793,3.997-1.379,7.237,1.104,7.099c2.825-0.138,6.203-4.687,8.821-9.511c0.346-0.62,0.827-0.62,1.173-0.069
		c0.481,0.758,0.345,2.345-0.62,4.344c-1.861,3.858-6.203,7.373-10.201,7.373c-5.858,0-7.236-4.271-5.238-10.27
		c2.274-6.754,8.34-14.061,7.101-14.611c-0.689-0.275-4.688,1.654-9.099,6.479c-4.066,4.411-7.1,11.028-10.062,17.507
		c-0.276,0.62-0.689,0.896-1.311,0.275c-1.379-1.378-1.792-3.652-0.688-7.1c1.379-4.343,6.686-13.923,11.026-20.333
		c0.482-0.758,1.035-0.688,1.448,0c1.034,1.725,0.965,4.066,0.206,6.548C440.23,487.288,444.918,483.497,447.192,483.842z"/>
	<path fill="#FFFFFF" d="M462.012,509.964c5.722,0.276,10.752-5.237,13.716-9.787c0.346-0.551,0.896-0.551,1.172,0.069
		c0.275,0.552,0.068,2.48-1.172,4.272c-2.896,4.204-8.201,7.375-13.509,7.443c-8.754,0.138-11.787-8.478-7.307-17.368
		c4.479-8.892,11.51-12.476,14.957-10.477c1.723,1.033,2.963,2.066,4.065,3.584c1.24,1.654,0.689,5.857-2.206,9.373
		c-3.377,4.136-7.994,5.928-12.818,1.999C456.704,505.415,458.358,509.758,462.012,509.964z M467.732,494.112
		c2.204-2.896,3.722-6.479,2.757-7.237c-1.448-1.172-7.169,2.964-10.407,9.512c-0.207,0.413-0.414,0.827-0.552,1.171
		C462.907,499.694,465.733,496.73,467.732,494.112z"/>
</g>
</svg>
