<?xml version="1.0" encoding="utf-8"?>
<!-- Generator: Adobe Illustrator 17.1.0, SVG Export Plug-In . SVG Version: 6.00 Build 0)  -->
<!DOCTYPE svg PUBLIC "-//W3C//DTD SVG 1.1//EN" "http://www.w3.org/Graphics/SVG/1.1/DTD/svg11.dtd">
<svg version="1.1" id="Capa_1" xmlns="http://www.w3.org/2000/svg" xmlns:xlink="http://www.w3.org/1999/xlink" x="0px" y="0px"
	 viewBox="0 0 48 48" enable-background="new 0 0 48 48" xml:space="preserve">
<g>
	<g>
		<g>
			<path fill="#FFFFFF" d="M15.7,20.1c1.1,0,2-0.9,2-2v-7.8c0-3.5,2.8-6.3,6.3-6.3c3.5,0,6.3,2.8,6.3,6.3v7.8c0,1.1,0.9,2,2,2
				s2-0.9,2-2v-7.8C34.4,4.6,29.8,0,24.1,0c-5.7,0-10.3,4.6-10.3,10.3v7.8C13.7,19.2,14.6,20.1,15.7,20.1z"/>
			<path fill="#FFFFFF" d="M47,15.6H36.4v2.5c0,2.2-1.8,4-4,4c-2.2,0-4-1.8-4-4v-2.5h-8.6v2.5c0,2.2-1.8,4-4,4s-4-1.8-4-4v-2.5H1
				c-0.6,0-0.9,0.4-0.8,1l7,28.5C7.7,46.7,9.3,48,11,48h26c1.7,0,3.3-1.3,3.8-2.9l7-28.5C47.9,16.1,47.6,15.6,47,15.6z"/>
		</g>
	</g>
</g>
</svg>
