<?xml version="1.0" encoding="utf-8"?>
<!-- Generator: Adobe Illustrator 17.1.0, SVG Export Plug-In . SVG Version: 6.00 Build 0)  -->
<!DOCTYPE svg PUBLIC "-//W3C//DTD SVG 1.1//EN" "http://www.w3.org/Graphics/SVG/1.1/DTD/svg11.dtd">
<svg version="1.1" id="Capa_1" xmlns="http://www.w3.org/2000/svg" xmlns:xlink="http://www.w3.org/1999/xlink" x="0px" y="0px"
	 viewBox="0 0 612 792" enable-background="new 0 0 612 792" xml:space="preserve">
<g>
	<g>
		<path fill="#FFFFFF" d="M567.3,178.8c-30.2-34.3-72.1-53.1-117.9-53.1c-64.5,0-105.3,38.5-128.2,70.8c-5.9,8.4-11,16.8-15.2,24.7
			c-4.2-7.9-9.3-16.3-15.2-24.7c-22.9-32.3-63.7-70.8-128.2-70.8c-45.8,0-87.7,18.9-117.9,53.1C15.9,211.4,0,255.2,0,302
			c0,50.9,19.9,98.3,62.6,149.1c38.2,45.4,93,92.1,156.6,146.3c23.7,20.2,48.2,41.1,74.2,63.9l0.8,0.7c3.4,3,7.6,4.4,11.8,4.4
			s8.4-1.5,11.8-4.4l0.8-0.7c26.1-22.8,50.6-43.7,74.3-63.9c63.6-54.2,118.4-100.9,156.6-146.3C592.1,400.3,612,352.9,612,302
			C612,255.2,596.1,211.4,567.3,178.8z M369.6,570.1c-20.4,17.4-41.4,35.3-63.6,54.6c-22.2-19.3-43.2-37.2-63.6-54.6
			C118,464.1,35.9,394,35.9,302c0-38,12.7-73.4,35.7-99.5c23.3-26.4,55.6-41,91-41c49.2,0,80.9,30.3,98.9,55.7
			c16.1,22.8,24.6,45.8,27.4,54.6c2.4,7.4,9.3,12.4,17,12.4s14.6-5,17-12.4c2.9-8.8,11.3-31.8,27.4-54.6
			c18-25.4,49.8-55.7,98.9-55.7c35.4,0,67.7,14.5,91,41c23,26.1,35.7,61.5,35.7,99.5C576.1,394,494,464.1,369.6,570.1z"/>
	</g>
</g>
</svg>
